<svg width="135" height="90" viewBox="0 0 135 90" fill="none" xmlns="http://www.w3.org/2000/svg">
<path d="M45.9832 58.1771H36.5257L30.7833 48.1632H40.2394L45.9832 58.1771ZM30.7494 31.8228L35.4917 39.9784L25.0163 58.1774H15.577L30.7494 31.8228ZM51.8516 44.7158L50.2578 41.6623L48.5858 44.7158H51.8516ZM52.5095 45.9916H47.9111L46.7154 48.1632H44.9633L50.289 38.6186L55.421 48.1632H53.6456L52.5095 45.9916ZM59.0176 43.4763L56.0531 39.1969H57.9011L59.9586 42.2257L62.1102 39.1969H63.9727L60.8787 43.4763L64.131 48.1632H62.3118L59.9335 44.7269L57.4751 48.1632H55.6391L59.0176 43.4763ZM67.2068 48.1634H65.5869V39.1966H67.2063L67.2068 48.1634ZM75.3073 40.5161L73.9845 41.1722C73.7377 40.816 73.5067 40.5836 73.28 40.4742C73.0481 40.3494 72.7511 40.2885 72.3823 40.2885C71.9353 40.2885 71.5637 40.3955 71.2602 40.6125C70.9645 40.8193 70.816 41.0805 70.8164 41.3966C70.8164 41.8403 71.208 42.1905 71.9847 42.4554L73.0584 42.8256C73.9309 43.1115 74.5683 43.4779 74.9767 43.8983C75.3864 44.3258 75.581 44.844 75.581 45.4665C75.581 46.2883 75.2537 46.9756 74.5902 47.5054C73.9305 48.0535 73.0998 48.324 72.116 48.324C71.1824 48.324 70.41 48.0949 69.8056 47.6279C69.2012 47.16 68.8329 46.5137 68.6807 45.6816L70.3238 45.3781C70.402 45.9084 70.5264 46.265 70.7177 46.469C71.0488 46.8536 71.5433 47.0505 72.1807 47.0505C72.6905 47.0505 73.1068 46.9136 73.4397 46.624C73.7768 46.3442 73.9412 45.9834 73.9412 45.5513C73.9412 45.3781 73.916 45.216 73.8462 45.0763C73.7996 44.9246 73.7074 44.7956 73.5859 44.6727C73.4676 44.5572 73.3005 44.4329 73.1068 44.329C72.9131 44.2196 72.6812 44.127 72.4121 44.0203L71.3752 43.6613C69.8955 43.1445 69.1672 42.3865 69.1672 41.3854C69.1672 40.7103 69.4773 40.1544 70.0919 39.7022C70.7056 39.2422 71.4748 39.008 72.3944 39.009C73.632 39.009 74.6098 39.5118 75.3073 40.5161ZM83.5646 46.8865H84.5689C85.3088 46.8865 85.8479 46.7687 86.192 46.5326C86.5515 46.2696 86.7368 45.9413 86.7368 45.5469C86.7368 45.1567 86.5515 44.8304 86.2074 44.5598C85.867 44.3149 85.2645 44.1762 84.3864 44.1762H83.5646V46.8865ZM83.5646 43.0452H84.0786C84.6802 43.0452 85.1267 42.9358 85.4047 42.7123C85.6822 42.4883 85.8265 42.1615 85.8265 41.7331C85.8265 41.3047 85.6822 40.9825 85.3963 40.773C85.1039 40.5472 84.689 40.4373 84.1391 40.4373H83.5646V43.0452ZM81.9433 48.1632V39.1964H83.5646C84.284 39.1964 84.8567 39.2365 85.2845 39.3319C85.7152 39.4218 86.0784 39.5862 86.3736 39.7971C86.6786 40.035 86.9114 40.3167 87.0916 40.665C87.2778 40.9998 87.3682 41.3527 87.3682 41.7042C87.3682 42.3463 87.0688 42.8892 86.4788 43.3357C87.0553 43.4973 87.5004 43.7823 87.8305 44.1897C88.169 44.5906 88.3338 45.0543 88.3338 45.5995C88.3338 46.2942 88.0386 46.8865 87.4413 47.374C87.086 47.6729 86.6846 47.8829 86.2391 47.9937C85.7497 48.1087 85.1407 48.1632 84.4036 48.1632H81.9433ZM95.3136 44.7158L93.7137 41.6623L92.0347 44.7158H95.3136ZM95.9733 45.9916H91.3684L90.1713 48.1632H88.4183L93.7361 38.6186L98.8769 48.1632H97.0927L95.9733 45.9916ZM99.9397 48.1634V38.5731L107.779 45.4293V39.1966H109.403V48.7104L101.562 41.8776V48.1634H99.9397ZM113.039 42.7764L117.229 39.1968H119.39L114.531 43.2593L119.423 48.1631H117.248L113.377 44.1724L113.039 44.4527V48.1631H111.413V39.1968H113.039V42.7764Z" fill="white"/>
</svg>
