<svg width="135" height="90" viewBox="0 0 135 90" fill="none" xmlns="http://www.w3.org/2000/svg">
<path d="M37.073 42.0404C37.4365 42.0404 37.8 42.1962 37.8 42.4558V54.502C37.8 54.7616 37.4365 54.9174 37.073 54.9174V55.177H40.5519V54.9174C40.1884 54.9174 39.825 54.7616 39.825 54.502V42.4558C39.825 42.1962 40.1884 42.0404 40.5519 42.0404V41.7808H37.073V42.0404ZM81.4154 48.0116C81.4154 47.1808 82.35 46.7135 83.3365 46.7135C84.8942 46.7135 85.8288 46.9731 86.0884 48.0635H86.4L86.348 46.6616C85.4134 46.2981 84.323 46.0904 83.5442 46.0904C80.8442 46.0904 79.7538 47.4924 79.7538 48.5828C79.7538 51.6981 85.1019 50.9712 85.1019 53.2558C85.1019 53.9308 84.5827 54.6058 83.1288 54.6058C81.3634 54.6058 80.4288 54.0347 80.0134 52.8404L79.7538 52.8924L79.8577 54.5539C80.6884 54.9174 81.8827 55.2289 82.8692 55.2289C85.7769 55.2289 87.075 53.8789 87.075 52.5808C87.075 49.5693 81.4154 50.2962 81.4154 48.0116ZM63.5538 46.5578C64.125 46.5578 64.4884 46.8693 64.2807 47.3366L61.6327 52.477L58.9846 47.2847C58.8807 46.8693 59.2442 46.6097 59.7115 46.6097V46.3501H55.4538V46.6097C55.973 46.6097 56.3365 46.8174 56.7519 47.4924L61.0615 55.3328L65.5269 47.3366C65.8903 46.7135 66.3577 46.6097 66.6692 46.6097V46.3501H63.6057V46.5578H63.5538ZM53.6884 54.502V48.6347C53.6884 46.9731 51.923 46.0385 50.0538 46.0385C48.4961 46.0385 47.0942 46.9212 46.523 47.3885V46.1424C46.523 45.9866 46.4192 45.9347 46.3673 45.9347C45.225 46.3501 44.7057 46.5578 43.5634 46.9212V47.1289C44.1865 47.1808 44.3423 47.4924 44.3942 47.9597V54.502C44.3942 54.8135 44.0307 54.9174 43.6673 54.9174V55.177H47.25V54.9174C46.8865 54.9174 46.523 54.7616 46.523 54.502V48.1154C46.9903 47.6481 47.9769 47.1289 49.0153 47.1289C51.1442 47.1289 51.6115 48.2712 51.6115 49.3097V54.502C51.6115 54.7616 51.248 54.8654 50.8846 54.8654V55.1251H54.3634V54.9174C54.0519 54.9174 53.6884 54.8135 53.6884 54.502ZM77.3653 49.9847C77.3653 47.1808 74.8211 46.0904 72.7442 46.0904C69.0057 46.0904 67.1884 48.5828 67.1884 50.6078C67.1884 51.3347 67.3961 52.2174 67.8115 52.8924C68.2788 53.6712 68.9019 54.2424 69.7327 54.6578C70.5634 55.0731 71.498 55.2808 72.5365 55.2808C73.4711 55.2808 74.3019 55.177 75.0288 54.9174C75.7557 54.6578 76.4307 54.2424 77.1577 53.6712V52.9962C76.4307 53.5154 75.7557 53.827 75.1846 54.0347C74.6134 54.1904 73.9903 54.2943 73.2634 54.2943C72.225 54.2943 71.2904 53.9828 70.5115 53.2558C69.7327 52.5289 69.4211 51.3866 69.3692 50.5558V50.0366H77.3653V49.9847ZM72.4846 46.7135C73.8346 46.7135 75.1327 47.3885 75.1327 49.2578H69.5769C69.7327 47.9597 70.7192 46.7135 72.4846 46.7135ZM108 49.9847C108 47.1808 105.456 46.0904 103.379 46.0904C99.6404 46.0904 97.823 48.5828 97.823 50.6078C97.823 51.3347 98.0307 52.2174 98.4461 52.8924C98.9134 53.6712 99.5365 54.2424 100.367 54.6578C101.198 55.0731 102.133 55.2808 103.171 55.2808C104.106 55.2808 104.937 55.177 105.663 54.9174C106.39 54.6578 107.065 54.2424 107.792 53.6712V52.9962C107.065 53.5154 106.39 53.827 105.819 54.0347C105.248 54.1904 104.625 54.2943 103.898 54.2943C102.86 54.2943 101.925 53.9828 101.146 53.2558C100.367 52.5289 100.056 51.3866 100.004 50.5558V50.0366H108V49.9847ZM103.119 46.7135C104.469 46.7135 105.767 47.3885 105.767 49.2578H100.212C100.367 47.9597 101.354 46.7135 103.119 46.7135ZM94.8634 54.502C94.1365 54.5539 92.6307 54.2943 92.6307 52.5808V47.1808H96.0577V46.402H92.6827V44.6885H90.5538V46.4539H89.2038V47.2328H90.5538V52.5808C90.5538 54.3981 92.0077 55.2808 93.9288 55.2808C94.6038 55.2808 95.3307 55.0212 95.7461 54.7616C95.9538 54.6578 96.1615 54.502 96.4211 54.2943L96.3692 53.9828C96.1096 54.1385 95.4346 54.4501 94.8634 54.502ZM115.529 46.7135C117.035 46.7135 118.437 47.5443 118.956 48.5308H119.423V46.8693C119.423 46.8693 117.762 45.9866 115.633 45.9866C111.479 45.9866 109.817 48.7385 109.817 50.6597C109.817 51.0231 109.869 51.4385 109.973 51.8539C110.025 51.9578 110.025 52.0616 110.077 52.1654C110.233 52.6328 110.492 53.1001 110.856 53.5154C111.219 53.9828 111.687 54.3462 112.258 54.6578C112.933 55.0212 113.66 55.2289 114.438 55.2808C114.698 55.3328 114.958 55.3328 115.269 55.3328C116.1 55.3328 116.775 55.177 117.346 54.9693C118.021 54.7097 118.696 54.3462 119.371 53.7231V52.9962C118.8 53.4116 118.229 53.7231 117.762 53.8789C117.242 54.0866 116.619 54.1904 115.892 54.1904C113.296 54.1904 112.05 52.3731 112.05 50.452C112.05 48.6866 113.088 46.7135 115.529 46.7135Z" fill="white"/>
<path d="M24.0404 41.7808V34.6674H23.4173V36.2251C20.3538 36.3289 17.8096 38.302 17.1865 40.8462H18.8481C19.4192 38.7693 21.2365 37.2116 23.4173 37.1077V41.8327H15.5769V42.4558H16.9788C17.1865 45.4674 19.9384 47.9077 23.3654 48.0635V49.5693H23.9884V42.4558H28.7134C28.5577 44.6885 27 46.5058 24.8711 47.0251V47.9597C27.8827 47.4924 30.1673 45.2077 30.375 42.4558H31.7769V41.7808H24.0404ZM23.4173 47.1289C20.8731 46.9731 18.8481 44.9481 18.6923 42.4039H23.4173V47.1289ZM28.6096 40.8462H30.2711C29.7 38.5097 27.6231 36.7443 24.975 36.277V37.2116C26.7404 37.6789 28.1423 39.0808 28.6096 40.8462Z" fill="white"/>
</svg>
