<svg width="145" height="25" viewBox="0 0 145 25" fill="none" xmlns="http://www.w3.org/2000/svg">
<path d="M0.176 24V1.6H8.464C10.256 1.6 11.7387 1.89867 12.912 2.496C14.0853 3.09333 14.96 3.91467 15.536 4.96C16.112 6.00533 16.4 7.17867 16.4 8.48C16.4 9.71733 16.1227 10.8587 15.568 11.904C15.0133 12.928 14.1493 13.76 12.976 14.4C11.8027 15.0187 10.2987 15.328 8.464 15.328H4.272V24H0.176ZM4.272 12H8.208C9.63733 12 10.6613 11.6907 11.28 11.072C11.92 10.432 12.24 9.568 12.24 8.48C12.24 7.37067 11.92 6.50667 11.28 5.888C10.6613 5.248 9.63733 4.928 8.208 4.928H4.272V12ZM25.4695 24.384C23.4855 24.384 21.9495 23.7653 20.8615 22.528C19.7948 21.2907 19.2615 19.4773 19.2615 17.088V8.128H23.3255V16.704C23.3255 18.0693 23.6028 19.1147 24.1575 19.84C24.7122 20.5653 25.5868 20.928 26.7815 20.928C27.9122 20.928 28.8402 20.5227 29.5655 19.712C30.3122 18.9013 30.6855 17.7707 30.6855 16.32V8.128H34.7815V24H31.1655L30.8455 21.312C30.3548 22.2507 29.6402 22.9973 28.7015 23.552C27.7842 24.1067 26.7068 24.384 25.4695 24.384ZM38.9863 24V8.128H42.6343L43.0183 11.104C43.5943 10.08 44.3729 9.26933 45.3542 8.672C46.3569 8.05333 47.5303 7.744 48.8743 7.744V12.064H47.7223C46.8263 12.064 46.0263 12.2027 45.3223 12.48C44.6183 12.7573 44.0636 13.2373 43.6583 13.92C43.2743 14.6027 43.0823 15.552 43.0823 16.768V24H38.9863ZM59.1045 24.384C57.5045 24.384 56.0858 24.0427 54.8485 23.36C53.6112 22.6773 52.6405 21.7173 51.9365 20.48C51.2325 19.2427 50.8805 17.8133 50.8805 16.192C50.8805 14.5493 51.2218 13.088 51.9045 11.808C52.6085 10.528 53.5685 9.536 54.7845 8.832C56.0218 8.10667 57.4725 7.744 59.1365 7.744C60.6938 7.744 62.0698 8.08533 63.2645 8.768C64.4592 9.45067 65.3872 10.3893 66.0485 11.584C66.7312 12.7573 67.0725 14.0693 67.0725 15.52C67.0725 15.7547 67.0618 16 67.0405 16.256C67.0405 16.512 67.0298 16.7787 67.0085 17.056H54.9445C55.0298 18.2933 55.4565 19.264 56.2245 19.968C57.0138 20.672 57.9632 21.024 59.0725 21.024C59.9045 21.024 60.5978 20.8427 61.1525 20.48C61.7285 20.096 62.1552 19.6053 62.4325 19.008H66.5925C66.2938 20.0107 65.7925 20.928 65.0885 21.76C64.4058 22.5707 63.5525 23.2107 62.5285 23.68C61.5258 24.1493 60.3845 24.384 59.1045 24.384ZM59.1365 11.072C58.1338 11.072 57.2485 11.36 56.4805 11.936C55.7125 12.4907 55.2218 13.344 55.0085 14.496H62.9125C62.8485 13.4507 62.4645 12.6187 61.7605 12C61.0565 11.3813 60.1818 11.072 59.1365 11.072ZM79.9255 24.384C78.7308 24.384 77.6855 24.16 76.7895 23.712C75.8935 23.264 75.1682 22.6347 74.6135 21.824L74.1655 24H70.5175V0.959999H74.6135V10.4C75.1255 9.696 75.7975 9.07733 76.6295 8.544C77.4828 8.01067 78.5815 7.744 79.9255 7.744C81.4188 7.744 82.7522 8.10667 83.9255 8.832C85.0988 9.55733 86.0268 10.5493 86.7095 11.808C87.3922 13.0667 87.7335 14.496 87.7335 16.096C87.7335 17.696 87.3922 19.1253 86.7095 20.384C86.0268 21.6213 85.0988 22.6027 83.9255 23.328C82.7522 24.032 81.4188 24.384 79.9255 24.384ZM79.0615 20.8C80.3628 20.8 81.4402 20.3627 82.2935 19.488C83.1468 18.6133 83.5735 17.4827 83.5735 16.096C83.5735 14.7093 83.1468 13.568 82.2935 12.672C81.4402 11.776 80.3628 11.328 79.0615 11.328C77.7388 11.328 76.6508 11.776 75.7975 12.672C74.9655 13.5467 74.5495 14.6773 74.5495 16.064C74.5495 17.4507 74.9655 18.592 75.7975 19.488C76.6508 20.3627 77.7388 20.8 79.0615 20.8ZM96.8645 24.384C95.4992 24.384 94.3792 24.1707 93.5045 23.744C92.6298 23.296 91.9792 22.7093 91.5525 21.984C91.1258 21.2587 90.9125 20.4587 90.9125 19.584C90.9125 18.112 91.4885 16.9173 92.6405 16C93.7925 15.0827 95.5205 14.624 97.8245 14.624H101.857V14.24C101.857 13.152 101.547 12.352 100.929 11.84C100.31 11.328 99.5418 11.072 98.6245 11.072C97.7925 11.072 97.0672 11.2747 96.4485 11.68C95.8298 12.064 95.4458 12.64 95.2965 13.408H91.2965C91.4032 12.256 91.7872 11.2533 92.4485 10.4C93.1312 9.54667 94.0058 8.896 95.0725 8.448C96.1392 7.97867 97.3338 7.744 98.6565 7.744C100.918 7.744 102.699 8.30933 104.001 9.44C105.302 10.5707 105.953 12.1707 105.953 14.24V24H102.465L102.081 21.44C101.611 22.2933 100.95 22.9973 100.097 23.552C99.2645 24.1067 98.1872 24.384 96.8645 24.384ZM97.7925 21.184C98.9658 21.184 99.8725 20.8 100.513 20.032C101.174 19.264 101.59 18.3147 101.761 17.184H98.2725C97.1845 17.184 96.4058 17.3867 95.9365 17.792C95.4672 18.176 95.2325 18.656 95.2325 19.232C95.2325 19.8507 95.4672 20.3307 95.9365 20.672C96.4058 21.0133 97.0245 21.184 97.7925 21.184ZM109.861 24V8.128H113.477L113.797 10.816C114.288 9.87733 114.992 9.13067 115.909 8.576C116.848 8.02133 117.947 7.744 119.205 7.744C121.168 7.744 122.693 8.36267 123.781 9.6C124.869 10.8373 125.413 12.6507 125.413 15.04V24H121.317V15.424C121.317 14.0587 121.04 13.0133 120.485 12.288C119.931 11.5627 119.067 11.2 117.893 11.2C116.741 11.2 115.792 11.6053 115.045 12.416C114.32 13.2267 113.957 14.3573 113.957 15.808V24H109.861ZM129.33 24V0.959999H133.426V14.56L139.058 8.128H143.922L137.426 15.36L144.978 24H139.858L133.426 16.032V24H129.33Z" fill="white"/>
</svg>
