<svg width="135" height="90" viewBox="0 0 135 90" fill="none" xmlns="http://www.w3.org/2000/svg">
<path fill-rule="evenodd" clip-rule="evenodd" d="M60.7594 49.0718L60.7589 37.3611L55.4771 39.247V39.4012L55.479 39.4023V39.4421C56.506 40.2299 57.0927 41.4833 57.0927 43.275V50.5765C56.3961 51.8661 55.2957 52.8336 53.5359 52.8336C51.4824 52.8336 50.3086 51.5439 50.3086 49.0362L50.3069 37.3583L45.1019 39.247V39.3684L45.1075 39.3703H45.1019V39.4421C46.0187 40.2299 46.6419 41.4477 46.6419 43.2748V49.6095C46.6419 53.3351 48.2556 55.6987 51.3725 55.6987C54.3425 55.6987 56.0297 53.4778 57.2761 51.1498V55.5914L62.4093 54.4453V54.3735C61.2363 53.5493 60.7594 52.8689 60.7594 49.0718ZM69.7491 37.3583L64.4458 39.3137V39.5722C65.3232 40.5688 66.0914 41.9706 66.0914 44.3328V48.5397C66.0914 51.7503 65.7628 53.5955 65.2509 55.625V55.699H70.5543V55.625C69.8226 53.5953 69.7491 51.6766 69.7491 48.5024V37.3583ZM67.4999 34.3013C68.6202 34.3013 69.5361 33.3922 69.5361 32.2806C69.5361 31.169 68.6202 30.2256 67.4999 30.2256C66.3804 30.2256 65.4637 31.169 65.4637 32.2806C65.4637 33.3922 66.3804 34.3013 67.4999 34.3013ZM77.8627 26.1499L72.5905 28.1264V28.2009C73.4629 29.1704 74.2266 30.5873 74.2266 33.0112V50.5159C74.2266 53.3127 73.8994 54.5801 73.427 55.6242V55.6987H78.699V55.6242C78.1899 54.6177 77.8627 53.2754 77.8627 50.4789V26.1499ZM113.566 41.8598H113.418V37.3583L108.224 39.314V39.388C109.108 40.3841 109.882 41.7497 109.882 44.1853V48.54C109.882 51.7873 109.734 53.5958 109.034 55.6253V55.6993H114.376V55.6253C113.64 53.5955 113.566 51.7141 113.566 48.5027V42.598C114.376 41.4906 115.334 40.9375 115.924 40.9375C116.734 40.9375 118.502 41.4909 119.202 42.0443H119.349L119.423 37.5425C117.028 37.5057 115.039 40.1253 113.566 41.8598ZM99.1115 38.0095C101.341 38.0095 102.46 39.6619 102.468 43.2156H94.7039C95.1126 40.2299 96.5424 38.0095 99.1115 38.0095ZM100.881 52.6239C97.0897 52.6239 94.5623 50.2005 94.5623 45.0996V44.4119H106.151C106.368 41.2285 103.48 37.3583 99.2562 37.3583C95.2845 37.3583 90.9164 41.0118 90.9164 46.8358C90.9164 51.8641 94.202 55.6987 99.0392 55.6987C102.794 55.6987 105.249 53.3113 106.188 50.3446L105.971 50.2002C104.743 51.7551 103.082 52.6239 100.881 52.6239ZM88.2564 54.4372C86.4938 54.4372 85.6861 53.4873 85.6861 51.7346V39.5035H90.4283V38.3033H90.4218V38.2941H85.6861V34.1671H85.3192L79.9956 38.732V38.9515H81.9782V51.8439C81.9782 55.2771 83.9242 56.2636 86.0904 56.2636C88.1457 56.2636 89.7613 55.3873 90.7891 53.9625L90.6786 53.8162C90.4953 53.9255 89.5407 54.4372 88.2564 54.4372ZM42.1644 59.4436C41.754 59.5238 41.3393 59.5806 40.9225 59.6135C36.7576 59.9295 32.2013 58.4935 30.0401 56.2401C36.7077 55.8316 43.2575 49.8762 43.2575 42.3852C43.2575 34.642 36.2824 28.4333 29.3802 28.4333C22.4785 28.4333 15.5769 34.6417 15.5769 42.3849C15.5769 49.8355 21.9649 55.7884 28.6095 56.2269L28.6524 56.2877C30.6771 60.4083 34.9493 63.6573 39.9698 63.8409C40.5057 63.8668 41.0428 63.8401 41.5734 63.7613C41.7772 63.7305 41.9743 63.6904 42.1644 63.6416V59.4436ZM20.2394 42.3849C20.2394 34.8609 23.0659 29.1637 29.3805 29.1637C35.7315 29.1637 38.595 34.8609 38.595 42.3849C38.595 49.9448 35.7315 55.5328 29.3805 55.5328C23.0659 55.5328 20.2394 49.9084 20.2394 42.3849Z" fill="white"/>
</svg>
