<svg width="224" height="224" viewBox="0 0 224 224" fill="none" xmlns="http://www.w3.org/2000/svg">
<path d="M224 112C224 173.856 173.856 224 112 224C50.1441 224 0 173.856 0 112C0 50.1441 50.1441 0 112 0C173.856 0 224 50.1441 224 112ZM33.6 112C33.6 155.299 68.7009 190.4 112 190.4C155.299 190.4 190.4 155.299 190.4 112C190.4 68.7009 155.299 33.6 112 33.6C68.7009 33.6 33.6 68.7009 33.6 112Z" fill="#C4F85C"/>
<path d="M224 112C224 135.402 216.67 158.216 203.039 177.238C189.408 196.259 170.161 210.534 148.001 218.056C125.841 225.578 101.882 225.97 79.4881 219.177C57.0941 212.384 37.3905 198.747 23.1444 180.181C8.8984 161.615 0.825648 139.054 0.0599663 115.665C-0.705715 92.2754 5.87413 69.2339 18.8754 49.7761C31.8767 30.3184 50.6462 15.4218 72.548 7.17854C94.4497 -1.0647 118.383 -2.24049 140.988 3.81631L132.291 36.2714C116.468 32.0317 99.7148 32.8547 84.3836 38.625C69.0524 44.3952 55.9137 54.8229 46.8128 68.4433C37.7119 82.0637 33.106 98.1928 33.642 114.565C34.178 130.938 39.8289 146.731 49.8011 159.727C59.7733 172.723 73.5659 182.269 89.2417 187.024C104.917 191.779 121.689 191.505 137.201 186.239C152.713 180.974 166.186 170.982 175.727 157.666C185.269 144.351 190.4 128.381 190.4 112H224Z" fill="#E92C81"/>
<path d="M224 112C224 134.152 217.431 155.806 205.125 174.224C192.818 192.642 175.326 206.997 154.861 215.475C134.395 223.952 111.876 226.169 90.1499 221.848C68.424 217.526 48.4675 206.859 32.804 191.196L56.5628 167.437C67.5273 178.402 81.4968 185.868 96.7049 188.894C111.913 191.919 127.677 190.366 142.002 184.432C156.328 178.498 168.573 168.45 177.187 155.557C185.802 142.664 190.4 127.506 190.4 112H224Z" fill="#E9B258"/>
<path d="M224 112C224 136.655 215.865 160.621 200.856 180.181C185.847 199.741 164.803 213.803 140.988 220.184L132.291 187.729C148.962 183.262 163.693 173.419 174.199 159.727C184.705 146.035 190.4 129.259 190.4 112H224Z" fill="#5FCFFF"/>
</svg>
