<svg width="135" height="90" viewBox="0 0 135 90" fill="none" xmlns="http://www.w3.org/2000/svg">
<path d="M39.8544 48.2637C39.8544 50.1523 41.225 50.7021 43.0426 50.7021C44.9119 50.7021 45.6286 49.6672 45.6286 48.8596C45.6286 48.3758 45.265 47.73 44.7139 47.5183C43.7799 47.1646 42.6266 46.7929 40.7679 46.291C38.1825 45.5973 37.8493 44.0779 37.8493 42.6713C37.8493 40.1849 40.3526 38.795 42.7717 38.795C45.5963 38.795 47.9849 40.2023 47.9849 43.0125H45.5963C45.4406 41.3954 44.3085 40.8636 42.6883 40.8636C41.5986 40.8636 40.4453 41.3954 40.4453 42.3973C40.4453 43.3363 40.8501 43.8345 41.8159 44.0941C42.0338 44.144 45.0041 44.9678 45.7102 45.1757C47.4861 45.6795 48.2956 47.1945 48.2956 48.6018C48.2956 51.4599 45.6479 52.8174 42.9685 52.8174C39.9771 52.8174 37.4434 51.6063 37.3917 48.2637H39.8544ZM55.7953 46.0469C55.474 45.3551 55.0064 44.4677 53.9054 44.4814C52.7946 44.4951 51.528 45.1434 51.528 47.6796C51.528 49.0209 51.9539 50.7681 53.8232 50.7681C54.695 50.7681 55.682 50.3939 55.8588 49.1031H58.1846C57.9255 51.3796 56.2636 52.7209 53.8232 52.7209C50.9153 52.7209 49.0148 50.6523 49.0148 47.6796C49.0148 45.0469 50.7391 42.6227 53.8961 42.6227C55.5574 42.6227 57.593 43.3506 58.0495 46.0469H55.7953ZM59.0252 39.4408H61.4026V43.7068H61.455C62.275 43.2068 63.0335 42.6557 64.3312 42.6557C66.4402 42.6557 67.5716 44.3058 67.5716 46.2113V52.4799H65.2347V46.7754C65.2347 46.1633 64.7988 44.7262 63.5322 44.7262C62.3062 44.7262 61.4026 45.4037 61.4026 47.1646V52.4799H59.0252V39.4408ZM73.9592 47.712C73.9592 44.7554 75.7874 42.6707 78.9127 42.6707C82.0492 42.6707 83.9073 44.8694 83.9073 47.712C83.9073 50.5558 81.9029 52.8031 78.9127 52.8031C75.9319 52.8031 73.9592 50.5882 73.9592 47.712ZM81.4253 47.712C81.4253 46.0332 80.7092 44.4814 78.9127 44.4814C77.1991 44.4814 76.4307 46.1621 76.4307 47.712C76.4307 49.425 77.158 50.9904 78.9127 50.9904C80.6264 50.9904 81.4253 49.3129 81.4253 47.712ZM94.2197 52.4793H91.894L91.6754 51.9456H91.6443C90.7414 52.4295 90.336 52.7875 89.1105 52.7875C86.0363 52.7875 84.6869 50.1672 84.6869 47.9884C84.6869 44.2722 86.9921 42.6389 88.7681 42.6389C90.0041 42.6389 90.5963 42.8332 91.676 43.5605L91.8111 43.4976V39.437H94.2203L94.2197 52.4793ZM89.4013 50.8148C91.2819 50.8148 91.8734 49.1996 91.8734 47.73C91.8734 45.5817 90.7625 44.69 89.4331 44.69C88.3739 44.69 87.2207 45.6278 87.2207 47.778C87.2207 48.4555 87.532 50.8148 89.4013 50.8148ZM97.6788 48.3596C97.6788 49.4574 98.3426 50.7482 100.005 50.7482C101.251 50.7482 101.655 50.1523 102.134 49.5707H104.584C104.097 51.6729 102.133 52.7209 100.005 52.7209C96.9309 52.7209 94.9788 50.4767 94.9788 47.7294C94.9788 44.9671 97.0249 42.5903 99.9323 42.5903C102.102 42.5903 104.865 44.1738 104.689 48.3596H97.6788ZM102.122 46.5488C101.831 44.9678 100.814 44.5456 99.931 44.5456C98.8096 44.5456 97.6781 45.2237 97.6781 46.5488H102.122ZM105.498 42.9303H107.918V43.9621H107.949C108.76 43.2062 109.143 42.8805 109.974 42.784C110.494 42.736 110.597 42.8319 110.794 42.85V44.8189C108.759 44.8189 107.897 45.8844 107.897 47.4529V52.478H105.498V42.9303ZM113.068 49.3752C113.443 50.7825 114.481 50.9761 115.582 50.9444C116.392 50.9288 117.076 50.4269 117.076 49.7967C117.076 48.8098 115.124 48.5856 114.564 48.5059C112.995 48.2462 111.136 47.5986 111.365 45.4834C111.365 43.4783 113.722 42.7049 115.498 42.7049C117.503 42.7049 119.248 43.8202 119.258 45.6789H117.181C116.889 44.8196 116.401 44.4814 115.353 44.4011C114.74 44.3513 113.556 44.6589 113.577 45.385C113.587 46.4523 115.155 46.4043 116.754 46.758C118.323 47.1136 119.423 47.8913 119.423 49.8142C119.423 51.3634 117.565 52.7526 115.549 52.7526C112.714 52.7526 111.229 51.8329 110.918 49.3746L113.068 49.3752ZM68.6315 42.9303H71.0512V43.9621H71.0824C71.8925 43.2062 72.2767 42.8805 73.0968 42.784C73.6161 42.736 73.7307 42.8319 73.9275 42.85V44.8189C71.8919 44.8189 71.0307 45.8844 71.0307 47.4529V52.478H68.6315V42.9303ZM26.9877 44.7343L27.05 44.7187V44.6533L27.0706 44.342L27.0811 44.2548L26.9877 44.2473C26.8838 44.2361 26.6241 44.2149 26.5307 44.4802V44.4983C26.5307 44.4933 26.5307 44.5163 26.489 44.5923C26.4684 44.6303 26.4479 44.6863 26.4578 44.7399L26.956 44.738C26.9666 44.7372 26.9772 44.736 26.9877 44.7343ZM24.1738 49.8129L24.4335 50.1031L24.0175 50.0458L23.8724 50.4157L23.7373 50.0495L23.322 50.1031L23.5816 49.8129L23.322 49.5228L23.7373 49.5763L23.8724 49.2095L24.0175 49.5726L24.4335 49.5228L24.1738 49.8129ZM25.0667 50.7943L25.3264 51.0845L24.9111 51.0278L24.7654 51.3977L24.6196 51.0297L24.2149 51.0845L24.4746 50.7943L24.2149 50.5047L24.6196 50.5577L24.7654 50.1903L24.9111 50.5552L25.3264 50.5047L25.0667 50.7943ZM25.9908 49.8148L26.2505 50.1062L25.8457 50.0495L25.7 50.4194L25.5543 50.0514L25.1496 50.1062L25.3986 49.8148L25.1496 49.5246L25.5543 49.5782L25.7 49.2114L25.8457 49.5744L26.2505 49.5246L25.9908 49.8148ZM25.5338 47.0737C25.6166 47.0239 25.6894 46.9741 25.7312 46.9473C25.8246 46.885 26.0531 46.5861 26.1054 46.5401C26.1571 46.494 26.0637 46.5064 26.0637 46.5064C26.0637 46.5064 26.0431 46.5139 25.908 46.6989C25.6894 46.9816 25.5032 47.0314 25.2741 47.1951C25.129 47.3054 24.921 47.4012 24.7759 47.4585C24.6309 47.5152 24.7448 47.5027 24.7448 47.5027L24.9839 47.4797C24.9839 47.4797 25.2953 47.2238 25.337 47.2007C25.3476 47.197 25.3575 47.1864 25.3787 47.1796C25.4933 47.1416 25.649 47.0513 25.8358 47.0457C26.0226 47.0401 26.2617 47.037 26.3028 47.065C26.3545 47.0974 26.4167 47.0743 26.3233 47.0494C26.2299 47.0264 26.0743 47.0121 25.9603 47.0121C25.8557 47.0114 25.6066 47.0276 25.5338 47.0737ZM23.4048 46.8103C23.4359 46.8938 23.4259 46.9971 23.3637 47.022C23.3014 47.0488 23.218 46.9884 23.1868 46.9031C23.1451 46.8178 23.1663 46.7275 23.2286 46.7026C23.2908 46.6777 23.3637 46.725 23.4048 46.8103ZM23.3637 47.2655C23.3425 47.1746 23.3842 47.0787 23.4465 47.0662C23.5088 47.0557 23.5816 47.1316 23.5916 47.225C23.6121 47.3141 23.571 47.3988 23.5088 47.41C23.4465 47.4218 23.3736 47.3564 23.3637 47.2655ZM24.2566 46.1559C24.3083 46.291 24.2772 46.4473 24.1838 46.4846C24.0798 46.5183 23.9552 46.4199 23.9036 46.2854C23.8519 46.1503 23.893 46.012 23.9864 45.974C24.0798 45.9373 24.2043 46.0183 24.2566 46.1559ZM24.0175 46.5737C24.1109 46.545 24.2043 46.5681 24.2255 46.631C24.246 46.6914 24.1838 46.768 24.0904 46.7985C24.0069 46.8284 23.9135 46.7997 23.9036 46.7393C23.8824 46.6771 23.9347 46.6042 24.0175 46.5737ZM24.454 46.6254C24.3812 46.6677 24.2983 46.6677 24.2672 46.6216C24.2361 46.5718 24.2778 46.4915 24.35 46.451C24.4123 46.4087 24.4957 46.4137 24.5269 46.4622C24.558 46.5096 24.5269 46.5849 24.454 46.6254ZM25.6583 46.3315C25.6272 46.4722 25.5132 46.5893 25.4192 46.5681C25.3152 46.545 25.2635 46.3944 25.2946 46.2518C25.3258 46.1092 25.4298 46.0133 25.5331 46.0344C25.6377 46.0562 25.6894 46.1895 25.6583 46.3315ZM25.243 46.5812C25.2946 46.6609 25.2946 46.7624 25.2324 46.7966C25.1807 46.8321 25.0867 46.7854 25.0456 46.7057C24.9939 46.6279 24.9939 46.5357 25.0562 46.5015C25.1085 46.4666 25.1913 46.5027 25.243 46.5812Z" fill="white"/>
<path d="M25.2953 47.0096C25.2224 46.9448 25.2019 46.8471 25.2436 46.8029C25.2953 46.7568 25.3993 46.7817 25.4721 46.844C25.5344 46.9062 25.5549 46.9928 25.5033 47.0389C25.4615 47.0856 25.3681 47.0719 25.2953 47.0096ZM23.6545 47.2369C23.6439 47.1447 23.675 47.0519 23.7479 47.0463C23.8102 47.0407 23.883 47.1248 23.8936 47.2169C23.9142 47.3079 23.8724 47.3894 23.8002 47.3944C23.7373 47.4006 23.675 47.3297 23.6545 47.2369ZM23.675 46.7979C23.7168 46.872 23.6962 46.9598 23.6439 46.9828C23.5922 47.004 23.5194 46.9523 23.4882 46.8776C23.4571 46.8066 23.4777 46.7269 23.53 46.7051C23.5816 46.6839 23.6439 46.7232 23.675 46.7979ZM26.375 47.362C26.271 47.2549 26.2399 47.0968 26.3128 47.0295C26.3856 46.9604 26.5413 47.0027 26.6453 47.108C26.7387 47.2145 26.7592 47.3564 26.6864 47.4262C26.6135 47.4959 26.4684 47.4666 26.375 47.362ZM26.0114 47.1802C26.0425 47.0912 26.1154 47.0258 26.1776 47.0451C26.2399 47.0644 26.2605 47.1659 26.2399 47.2531C26.2088 47.3427 26.1359 47.3969 26.0736 47.3757C26.0114 47.3564 25.9802 47.2674 26.0114 47.1802ZM26.3651 46.8925C26.3339 46.9797 26.2505 47.0432 26.1882 47.022C26.126 46.999 26.1054 46.8994 26.1365 46.8122C26.1677 46.7232 26.2405 46.6733 26.3028 46.6951C26.3651 46.7169 26.3956 46.8047 26.3651 46.8925ZM25.9908 46.8869C25.9597 46.976 25.8763 47.0364 25.814 47.0077C25.7517 46.9791 25.7411 46.872 25.7729 46.7854C25.804 46.6964 25.8769 46.6484 25.9391 46.6771C26.0014 46.7039 26.022 46.7979 25.9908 46.8869ZM25.6894 47.1889C25.7 47.1086 25.7517 47.0376 25.814 47.0451C25.8657 47.0526 25.9074 47.1323 25.8974 47.2138C25.8868 47.2904 25.8352 47.3508 25.7829 47.3458C25.7212 47.339 25.6795 47.2674 25.6894 47.1889ZM24.8071 47.1983C24.7865 47.1042 24.8283 47.0127 24.8899 47.0077C24.9628 47.0003 25.025 47.0824 25.0456 47.1765C25.0562 47.2686 25.0145 47.3483 24.9522 47.3539C24.8899 47.362 24.8171 47.2904 24.8071 47.1983ZM24.9005 46.7948C24.9316 46.8658 24.921 46.9548 24.8694 46.976C24.8177 46.999 24.7448 46.9473 24.7137 46.8745C24.6826 46.7997 24.6931 46.7238 24.7448 46.7007C24.7965 46.6771 24.8694 46.7194 24.9005 46.7948Z" fill="white"/>
<path d="M24.0798 47.3869C24.0069 47.4386 23.9658 47.4616 23.9241 47.4722C23.7167 47.5451 23.8307 47.5432 23.9758 47.5065C24.1003 47.476 24.1732 47.3639 24.2765 47.2804C24.3805 47.1989 24.6091 47.1185 24.7336 47.065C24.8581 47.0152 25.2218 46.9162 25.398 46.6416C25.5749 46.3682 25.4709 46.4585 25.4086 46.56C25.3569 46.6609 25.3152 46.7238 25.2218 46.791C25.1178 46.8564 25.0144 46.9205 24.8999 46.9666C24.7753 47.0114 24.6402 47.0525 24.5256 47.1104C24.3388 47.2063 24.3488 47.2014 24.4216 47.0893C24.4945 46.9753 24.5985 46.8228 24.6707 46.5774C24.733 46.3315 24.6502 46.4653 24.6502 46.4853C24.6502 46.4853 24.5879 46.7319 24.515 46.8514C24.4633 46.9473 24.4322 47.0438 24.3488 47.108C24.2759 47.1721 24.2759 47.1914 24.2971 47.0812C24.2971 47.0812 24.3176 46.8122 24.2454 46.56C24.1626 46.3072 24.1308 46.3246 24.1726 46.4355C24.2242 46.5438 24.2765 46.8639 24.266 47.0563C24.2566 47.2904 24.0798 47.3869 24.0798 47.3869ZM25.814 46.0986C25.8034 46.093 25.7729 46.0737 25.7828 46.0625C25.7828 46.05 25.8239 46.0556 25.8239 46.0575C25.8345 46.0662 25.8345 46.0699 25.8551 46.0855C25.8756 46.0948 25.8656 46.0986 25.8551 46.0948C25.8246 46.0917 25.814 46.0986 25.814 46.0986ZM26.5101 46.5949C26.5207 46.6042 26.5307 46.6353 26.5101 46.6409C26.4995 46.6465 26.479 46.6198 26.479 46.6142C26.4684 46.6005 26.479 46.5986 26.4684 46.5718C26.4684 46.5581 26.4684 46.5563 26.479 46.5662C26.4995 46.5861 26.5101 46.5949 26.5101 46.5949ZM26.6864 46.06C26.6969 46.06 26.7281 46.06 26.738 46.0724C26.738 46.0855 26.7069 46.1048 26.6969 46.1048C26.6864 46.1048 26.6864 46.0992 26.6552 46.0992C26.6347 46.0992 26.6347 46.0936 26.6552 46.088C26.6679 46.0816 26.6787 46.0719 26.6864 46.06Z" fill="white"/>
<path d="M25.8868 46.0811C25.8763 46.0544 25.8352 45.9852 25.9491 45.9385C26.0736 45.8956 26.0736 45.8694 26.0948 45.837C26.126 45.8065 26.1677 45.7642 26.2194 45.8103C26.2611 45.8526 26.2505 45.8507 26.2816 45.8159C26.3233 45.7816 26.3651 45.7698 26.4167 45.8296C26.4585 45.8887 26.479 45.9236 26.5625 45.9504C26.6453 45.9753 26.6664 46.0344 26.6353 46.0768C26.6042 46.1172 26.6247 46.1054 26.6664 46.139C26.7082 46.1733 26.7082 46.2019 26.6559 46.2711C26.6036 46.3402 26.5936 46.3738 26.5936 46.4635C26.583 46.5506 26.5419 46.5699 26.5002 46.5525C26.4585 46.5369 26.4585 46.522 26.4585 46.5662C26.4585 46.6086 26.4379 46.6571 26.3757 46.6484C26.3134 46.6391 26.2511 46.6123 26.1783 46.6322C26.1054 46.6503 26.0332 46.6465 26.0332 46.5774C26.0332 46.5102 26.0332 46.5133 25.9915 46.522C25.9398 46.5313 25.9086 46.5027 25.898 46.433C25.898 46.3601 25.8875 46.3103 25.8563 46.2623C25.8146 46.2144 25.8146 46.1559 25.8563 46.1341C25.918 46.1092 25.8868 46.0811 25.8868 46.0811ZM25.9286 46.1378C25.8868 46.1328 25.8663 46.2144 25.9286 46.2468C25.9703 46.2717 25.9802 46.3495 25.9597 46.4031C25.9385 46.4622 25.9802 46.5027 26.022 46.4815C26.1054 46.4392 26.1054 46.4143 26.0736 46.5332C26.0531 46.6005 26.1359 46.5812 26.1882 46.5631C26.2505 46.5382 26.2816 46.5382 26.3651 46.5899C26.4062 46.6185 26.4379 46.5475 26.4273 46.512C26.3962 46.418 26.4062 46.4585 26.4684 46.5083C26.4996 46.5332 26.5512 46.5189 26.5307 46.4298C26.5201 46.3551 26.5512 46.314 26.593 46.2536C26.6447 46.1932 26.6447 46.1378 26.6036 46.1397C26.489 46.1397 26.4996 46.1397 26.583 46.0955C26.6241 46.0743 26.6141 45.9815 26.5207 45.9958C26.4379 46.007 26.4062 45.9441 26.3757 45.8837C26.3545 45.8196 26.2922 45.8265 26.2822 45.87C26.2617 45.9821 26.2617 46.0126 26.2411 45.8769C26.2306 45.8202 26.1683 45.8345 26.1266 45.9093C26.0954 45.9666 26.106 45.9697 25.9915 45.9896C25.8769 46.0108 25.9292 46.073 25.9398 46.0979C25.9391 46.0967 26.1154 46.1559 25.9286 46.1378Z" fill="white"/>
<path d="M26.2299 45.7468C26.2299 45.7374 26.2505 45.7057 26.2611 45.7075C26.2716 45.7094 26.2816 45.7468 26.2716 45.7524C26.2716 45.7661 26.2716 45.7648 26.2611 45.7916C26.2505 45.8072 26.2505 45.8053 26.2505 45.7916C26.2446 45.7762 26.2378 45.7612 26.2299 45.7468ZM26.0431 46.1378C26.0431 46.1222 26.012 46.0811 26.0842 46.0562C26.1465 46.0313 26.1465 46.0151 26.1677 45.9971C26.1782 45.9796 26.2087 45.9547 26.2299 45.9815C26.2611 46.0064 26.2505 46.0045 26.271 45.9852C26.2916 45.9659 26.3227 45.9585 26.3439 45.994C26.375 46.0282 26.3856 46.0494 26.4373 46.0631C26.4784 46.0774 26.4995 46.111 26.4784 46.1359C26.4578 46.1608 26.4678 46.154 26.489 46.172C26.5201 46.1914 26.5201 46.2094 26.489 46.2486C26.4578 46.2891 26.4578 46.3072 26.4479 46.3589C26.4479 46.4105 26.4273 46.4211 26.3962 46.4143C26.3756 46.4031 26.3756 46.395 26.3756 46.4199C26.3756 46.4442 26.365 46.4709 26.3239 46.4672C26.2928 46.4604 26.2511 46.4479 26.2094 46.4585C26.1683 46.4691 26.1266 46.466 26.1266 46.4261C26.1266 46.3869 26.1266 46.3887 26.106 46.3944C26.0749 46.3993 26.0543 46.3831 26.0543 46.3408C26.0543 46.3003 26.0437 46.2698 26.0232 46.2449C26.0026 46.2163 26.0026 46.1808 26.0232 46.1702C26.0637 46.1559 26.0431 46.1378 26.0431 46.1378ZM26.2611 46.3333C26.3127 46.3333 26.365 46.2854 26.365 46.225C26.365 46.1602 26.3134 46.1123 26.2611 46.1123C26.1988 46.1123 26.1465 46.1602 26.1465 46.225C26.1465 46.2854 26.1988 46.3333 26.2611 46.3333ZM24.2983 46.0313C24.2877 46.0257 24.2672 46.0064 24.2672 45.9952C24.2672 45.9846 24.3089 45.9865 24.3189 45.9896C24.3295 45.9989 24.3189 46.0027 24.35 46.0164C24.3606 46.0257 24.3606 46.0307 24.3394 46.0295C24.3189 46.0238 24.2983 46.0313 24.2983 46.0313ZM25.0045 46.5257C25.0045 46.5369 25.0151 46.5681 25.0045 46.5737C24.9939 46.5793 24.9634 46.5525 24.9634 46.545C24.9634 46.5313 24.9634 46.5295 24.9528 46.5027C24.9528 46.4871 24.9528 46.4871 24.9634 46.4971C24.9833 46.5183 25.0045 46.5257 25.0045 46.5257ZM25.1807 45.9902C25.1913 45.9902 25.2218 45.9902 25.2218 46.0045C25.2218 46.017 25.1906 46.0351 25.1807 46.0351C25.1707 46.0351 25.1701 46.0313 25.139 46.0313C25.1284 46.0313 25.1284 46.0257 25.139 46.0182C25.1539 46.0106 25.1679 46.0012 25.1807 45.9902Z" fill="white"/>
<path d="M24.3812 46.0139C24.3706 45.9852 24.3189 45.9143 24.4328 45.8713C24.5574 45.8283 24.5574 45.8003 24.5885 45.7698C24.6091 45.7374 24.6508 45.6951 24.7031 45.7412C24.7548 45.7872 24.7342 45.7816 24.776 45.7468C24.8071 45.7125 24.8488 45.7007 24.9005 45.7623C24.9522 45.8196 24.9628 45.8564 25.0456 45.8831C25.1284 45.9062 25.1602 45.9666 25.1184 46.0095C25.0873 46.05 25.1078 46.0394 25.1496 46.0718C25.1913 46.1061 25.2012 46.1328 25.1496 46.2038C25.0979 46.2711 25.0873 46.3047 25.0767 46.3944C25.0767 46.4853 25.0356 46.5008 24.9939 46.4865C24.9522 46.4685 24.9422 46.4541 24.9422 46.4971C24.9422 46.5413 24.9316 46.5893 24.8694 46.5812C24.7965 46.57 24.7342 46.545 24.662 46.5631C24.5891 46.5849 24.5269 46.5793 24.5269 46.5102C24.5269 46.4429 24.5269 46.4473 24.4752 46.4548C24.4235 46.466 24.3924 46.4373 24.3924 46.3638C24.3818 46.2929 24.3818 46.2412 24.3407 46.1951C24.2996 46.1471 24.2996 46.0861 24.3513 46.0668C24.4017 46.0419 24.3812 46.0139 24.3812 46.0139ZM24.4123 46.0681C24.3712 46.0643 24.35 46.1447 24.4123 46.1789C24.454 46.2038 24.464 46.2816 24.4434 46.3333C24.4328 46.3925 24.4746 46.4348 24.5163 46.4137C24.5891 46.3707 24.5891 46.3445 24.558 46.4653C24.5474 46.5307 24.6309 46.5133 24.672 46.4934C24.7342 46.4685 24.7654 46.4685 24.8488 46.5201C24.8899 46.5507 24.9217 46.4797 24.9111 46.4423C24.8799 46.3495 24.9005 46.3888 24.9522 46.4404C24.9833 46.4653 25.0356 46.451 25.025 46.362C25.0144 46.2854 25.0356 46.2462 25.0873 46.1858C25.129 46.1254 25.139 46.0699 25.0873 46.0699C24.9833 46.0718 24.9939 46.0699 25.0767 46.0276C25.1078 46.0064 25.0979 45.9118 25.0039 45.9261C24.931 45.9373 24.8893 45.8744 24.8687 45.814C24.8376 45.7499 24.7753 45.7586 24.7647 45.8003C24.7436 45.9124 24.7436 45.9435 24.723 45.809C24.7124 45.7505 24.6502 45.7648 24.619 45.8414C24.5879 45.8962 24.5879 45.8999 24.4739 45.9199C24.36 45.941 24.4223 46.0052 24.4328 46.0301C24.4335 46.0295 24.6097 46.0861 24.4123 46.0681Z" fill="white"/>
<path d="M24.7237 45.6789C24.7237 45.6695 24.7342 45.6378 24.7442 45.6396C24.7542 45.6415 24.7654 45.6776 24.7654 45.682C24.7548 45.6982 24.7548 45.6963 24.7442 45.7231C24.7442 45.7368 24.7336 45.7355 24.7336 45.7212C24.7342 45.6969 24.7237 45.6789 24.7237 45.6789ZM24.5368 46.0699C24.5263 46.0543 24.4958 46.0132 24.568 45.9883C24.6408 45.9616 24.6408 45.9454 24.6508 45.9292C24.6713 45.9099 24.6925 45.885 24.7237 45.9117C24.7442 45.9385 24.7442 45.9348 24.7548 45.9155C24.776 45.8956 24.8065 45.8887 24.8382 45.9242C24.8588 45.9584 24.8694 45.9796 24.921 45.9952C24.9727 46.0083 24.9833 46.0431 24.9628 46.0662C24.9416 46.0911 24.9522 46.0842 24.9833 46.1042C25.0039 46.1216 25.0039 46.1396 24.9833 46.1807C24.9522 46.2212 24.9416 46.2393 24.9416 46.291C24.931 46.3408 24.9105 46.3532 24.8899 46.3426C24.8588 46.3333 24.8588 46.3246 24.8588 46.3514C24.8588 46.3763 24.8482 46.403 24.8171 46.3974C24.776 46.3925 24.7342 46.3781 24.6925 46.3887C24.6508 46.3993 24.6197 46.3974 24.6197 46.3563C24.6197 46.3171 24.6197 46.3209 24.5885 46.324C24.5574 46.3296 24.5468 46.3134 24.5368 46.2729C24.5368 46.2318 24.5368 46.2019 24.5057 46.1751C24.4845 46.1465 24.4845 46.1123 24.5163 46.1004C24.5474 46.0861 24.5368 46.0699 24.5368 46.0699ZM24.7448 46.2661C24.8071 46.2661 24.8594 46.2162 24.8594 46.1558C24.8594 46.0929 24.8077 46.0431 24.7448 46.0431C24.6819 46.0431 24.6309 46.0929 24.6309 46.1558C24.6309 46.2162 24.6826 46.2661 24.7448 46.2661ZM23.8619 46.9896C23.789 46.9404 23.789 46.9491 23.7473 46.9224C23.6539 46.862 23.3631 46.5973 23.3114 46.5525C23.2597 46.5077 23.3425 46.5182 23.3425 46.5182C23.3425 46.5182 23.4465 46.5575 23.5399 46.677C23.7585 46.9597 23.9864 46.9934 24.2149 47.1571C24.3606 47.2661 24.4957 47.4137 24.6408 47.4703C24.7859 47.5258 24.672 47.5146 24.672 47.5146L24.4229 47.4915C24.4229 47.4915 24.1944 47.1858 24.1526 47.1627C24.1421 47.159 23.997 47.0488 23.9864 47.0438C23.8619 47.0064 23.7373 47.0102 23.4154 47.0706C23.2286 47.103 22.9895 47.06 22.9484 47.0899C22.9073 47.1204 22.8444 47.0973 22.9278 47.0743C23.0212 47.0494 23.1875 47.0351 23.2915 47.0351C23.4054 47.0351 23.6757 46.9442 23.7479 46.989L23.8619 46.9896Z" fill="white"/>
<path d="M22.8238 47.0376C22.9378 46.9541 23.104 46.9386 23.1663 47.0201C23.218 47.1023 23.1557 47.2512 23.0418 47.3371C22.9272 47.4243 22.7821 47.4261 22.7198 47.3446C22.6576 47.2617 22.7092 47.1254 22.8238 47.0376ZM22.8026 46.1434C22.8026 46.1397 22.7715 46.1203 22.7821 46.1091C22.7821 46.0986 22.8238 46.0986 22.8238 46.1042C22.8344 46.111 22.8344 46.1147 22.8549 46.1328C22.8755 46.1397 22.8655 46.1434 22.8549 46.1415C22.8375 46.1391 22.8198 46.1398 22.8026 46.1434ZM23.685 46.106C23.6956 46.1042 23.7267 46.106 23.7367 46.1166C23.7367 46.1297 23.7055 46.149 23.6956 46.149C23.685 46.149 23.685 46.1434 23.6539 46.1434C23.6333 46.1434 23.6433 46.1397 23.6539 46.1328C23.675 46.1216 23.685 46.106 23.685 46.106Z" fill="white"/>
<path d="M22.8855 46.1253C22.8749 46.0986 22.8232 46.0295 22.9477 45.9846C23.0723 45.9404 23.0623 45.9136 23.0934 45.8831C23.1246 45.8526 23.1663 45.8084 23.218 45.8563C23.2597 45.8987 23.2491 45.8956 23.2803 45.8601C23.3114 45.8258 23.3637 45.8159 23.4154 45.8738C23.4571 45.9348 23.4776 45.9697 23.5611 45.9946C23.6439 46.0214 23.6651 46.0805 23.6339 46.121C23.6028 46.1652 23.6234 46.1515 23.6651 46.1851C23.7068 46.2194 23.7068 46.2462 23.6545 46.3153C23.6028 46.3863 23.5922 46.4199 23.5922 46.5077C23.5816 46.5967 23.5405 46.616 23.4988 46.5986C23.4571 46.5849 23.4571 46.5681 23.4571 46.6123C23.4571 46.6553 23.4365 46.7032 23.3743 46.6926C23.312 46.6833 23.2497 46.6565 23.1769 46.6771C23.104 46.6964 23.0318 46.6908 23.0318 46.6235C23.0318 46.5563 23.0424 46.5612 22.9901 46.5681C22.9384 46.5774 22.9073 46.5506 22.8967 46.4772C22.8967 46.4062 22.8861 46.3545 22.855 46.3066C22.8132 46.2605 22.8132 46.2001 22.855 46.1808C22.9172 46.1559 22.8855 46.1253 22.8855 46.1253ZM22.9272 46.1839C22.8855 46.1789 22.8649 46.2586 22.9272 46.2929C22.9689 46.3178 22.9789 46.3944 22.9583 46.4473C22.9372 46.5083 22.9895 46.5488 23.0206 46.5257C23.104 46.4853 23.104 46.4585 23.0723 46.5793C23.0517 46.6465 23.1345 46.6272 23.1868 46.6079C23.2491 46.5849 23.2803 46.5849 23.3637 46.636C23.4048 46.6646 23.4365 46.5936 23.426 46.5581C23.3948 46.4641 23.4048 46.5027 23.4671 46.5525C23.4982 46.5793 23.5499 46.5631 23.5293 46.4759C23.5187 46.3993 23.5499 46.3589 23.5916 46.2985C23.6433 46.2393 23.6433 46.1839 23.6022 46.1839C23.4876 46.1858 23.4982 46.1839 23.5816 46.1415C23.6234 46.1185 23.6128 46.0276 23.5194 46.0419C23.4365 46.0512 23.4048 45.989 23.3743 45.928C23.3531 45.8638 23.2809 45.8713 23.2809 45.9143C23.2603 46.0263 23.2603 46.0569 23.2398 45.923C23.2292 45.8644 23.1669 45.8788 23.1252 45.9535C23.0941 46.0126 23.0941 46.0145 22.9901 46.0357C22.8755 46.0569 22.9278 46.1173 22.9384 46.1422C22.9378 46.1415 23.114 46.2001 22.9272 46.1839Z" fill="white"/>
<path d="M23 46.6447C22.9894 46.6503 22.9689 46.6733 22.9589 46.6658C22.9483 46.6565 22.9589 46.6235 22.9695 46.6179C22.9801 46.6086 22.9801 46.6123 23.0007 46.5911C23.0112 46.5805 23.0112 46.5855 23.0112 46.5986C23 46.6235 23 46.6447 23 46.6447ZM23.2491 45.8352C23.2491 45.8507 23.2491 45.8526 23.2597 45.837C23.2703 45.8084 23.2703 45.8121 23.2703 45.7978C23.2809 45.7903 23.2703 45.753 23.2597 45.753C23.2391 45.7517 23.2286 45.7835 23.2286 45.7922C23.2286 45.7928 23.2391 45.8084 23.2491 45.8352ZM23.0418 46.1839C23.0418 46.1664 23.0106 46.1253 23.0829 46.1004C23.1451 46.0755 23.1451 46.06 23.1663 46.0432C23.1769 46.0238 23.2074 45.9989 23.2286 46.0276C23.2597 46.0506 23.2491 46.0488 23.2697 46.0313C23.2908 46.012 23.3213 46.0045 23.3425 46.04C23.3736 46.0724 23.3842 46.0936 23.4359 46.1079C23.477 46.1216 23.4982 46.1571 23.477 46.182C23.4565 46.2051 23.4664 46.1982 23.4876 46.2163C23.5187 46.2374 23.5187 46.2536 23.4876 46.2947C23.4565 46.3339 23.4565 46.3533 23.4465 46.4049C23.4465 46.4566 23.426 46.4672 23.3948 46.4585C23.3743 46.4473 23.3743 46.4411 23.3743 46.466C23.3743 46.4902 23.3637 46.517 23.3226 46.512C23.2915 46.5064 23.2497 46.4921 23.208 46.5027C23.1669 46.5139 23.1252 46.512 23.1252 46.4703C23.1252 46.4311 23.1252 46.4348 23.1046 46.4404C23.0735 46.4435 23.053 46.4274 23.053 46.3869C23.053 46.3464 23.0424 46.314 23.0218 46.2891C23.0013 46.2605 23.0013 46.2268 23.0218 46.2144C23.0623 46.2001 23.0418 46.1839 23.0418 46.1839ZM23.2597 46.3813C23.3114 46.3813 23.3637 46.3296 23.3637 46.2692C23.3637 46.2082 23.312 46.1583 23.2597 46.1583C23.1974 46.1583 23.1451 46.2082 23.1451 46.2692C23.1451 46.3296 23.1974 46.3813 23.2597 46.3813ZM17.8697 42.1214C18.1293 42.198 18.4413 42.0056 18.6692 42.1781C18.7732 42.2454 18.6586 42.2566 18.6381 42.2422C18.5758 42.1906 18.1916 42.3244 17.9942 42.2802C17.8803 42.2547 17.818 42.1501 17.818 42.1501C17.818 42.1501 17.7346 42.0517 17.8697 42.1214Z" fill="white"/>
<path d="M27.3719 46.8676V46.862C27.5071 46.768 27.6422 46.682 27.7667 46.6079V44.738L26.956 44.738C26.9149 44.7511 26.8215 44.7772 26.8215 44.776C26.8215 44.7779 26.6969 44.8165 26.6241 44.8326C26.5618 44.8457 26.5101 44.8326 26.479 44.7934C26.4684 44.7859 26.4684 44.7779 26.4684 44.7685C26.4479 44.8146 26.4167 44.87 26.3538 44.9036C26.3227 44.9198 26.2499 44.9429 26.1565 44.9018L26.1359 44.893L26.1154 44.88C26.0325 44.8158 25.9385 44.7698 25.814 44.7392L25.2324 44.7411C25.1489 44.7679 25.035 44.8196 24.9416 44.9086C25.0039 44.9584 25.0562 45.0388 25.0562 45.1278C25.0562 45.2785 24.9316 45.403 24.7759 45.403C24.7137 45.403 24.6408 45.3744 24.5991 45.3283L24.6097 45.3725L24.558 45.3868L24.5063 45.3675L23.0418 44.8657L23.0829 44.743H21.7852V47.4629L21.8057 47.7045C21.8269 47.7313 21.8474 47.7524 21.868 47.7705C21.9197 47.8272 21.9508 47.9249 21.9303 48.0015C21.9097 48.0513 21.8786 48.085 21.8368 48.0993V48.1099C21.868 48.9729 22.1694 49.7911 22.5529 50.5147C23.0517 51.3647 23.8513 52.0042 24.6925 52.5123C24.7336 52.5465 24.8065 52.5465 24.8482 52.5142C25.7 52.006 26.4996 51.3684 26.9977 50.5203C27.3296 49.887 27.6104 49.1809 27.6933 48.4374L27.6827 48.4281L27.6721 48.415C27.5475 48.2817 27.4959 48.1024 27.4541 47.9224C27.4224 47.9386 27.3813 47.9473 27.3396 47.9473C27.1839 47.9473 27.0693 47.8228 27.0693 47.6721C27.0693 47.5295 27.1733 47.4143 27.319 47.4012L27.3078 47.3888C27.2561 47.2948 27.1521 47.0681 27.3601 46.8726L27.3719 46.8676ZM21.9203 45.1297C21.9203 44.9802 22.0448 44.8569 22.1905 44.8569C22.3462 44.8569 22.4707 44.9796 22.4707 45.1297C22.4707 45.2822 22.3462 45.4049 22.1905 45.4049C22.0448 45.4049 21.9203 45.2822 21.9203 45.1297ZM22.2316 47.966C22.0859 47.966 21.9614 47.8421 21.9614 47.6927C21.9614 47.5395 22.0859 47.4187 22.2316 47.4187C22.3873 47.4187 22.5118 47.5395 22.5118 47.6927C22.5118 47.8421 22.3873 47.966 22.2316 47.966ZM22.6264 45.5774H26.9049V47.5943H22.6264V45.5774ZM22.8755 50.5533C22.7198 50.5533 22.5953 50.4306 22.5953 50.2793C22.5953 50.128 22.7198 50.006 22.8755 50.006C23.0206 50.006 23.1457 50.128 23.1457 50.2793C23.1457 50.4306 23.0206 50.5533 22.8755 50.5533ZM24.7654 52.3709C24.6197 52.3709 24.4951 52.2464 24.4951 52.0976C24.4951 51.9444 24.6197 51.8217 24.7654 51.8217C24.921 51.8217 25.0456 51.9444 25.0456 52.0976C25.0462 52.2458 24.921 52.3709 24.7654 52.3709ZM24.8071 51.6218L24.7137 51.62C24.1215 51.2196 23.6022 50.7663 23.2491 50.138C23.01 49.7787 22.8444 49.3746 22.7298 48.9636L26.7904 48.9605C26.7798 49.2625 26.6453 49.5452 26.5201 49.8142C26.1882 50.5801 25.5238 51.2053 24.8071 51.6218ZM26.7075 50.5533C26.5519 50.5533 26.4373 50.4306 26.4373 50.2793C26.4373 50.128 26.5512 50.006 26.7075 50.006C26.8526 50.006 26.9778 50.128 26.9778 50.2793C26.9778 50.4306 26.8526 50.5533 26.7075 50.5533ZM27.05 45.1185C27.05 44.9678 27.1746 44.8451 27.3203 44.8451C27.4759 44.8451 27.5999 44.9678 27.5999 45.1185C27.5999 45.2698 27.4759 45.3943 27.3203 45.3943C27.1746 45.3943 27.05 45.2698 27.05 45.1185Z" fill="white"/>
<path d="M24.5991 44.7417H23.7996L24.454 44.9678C24.4957 44.8856 24.5474 44.8108 24.5991 44.7417ZM31.5676 39.5242C31.661 39.6101 31.6299 39.7365 31.6299 39.8586C31.5265 39.9121 31.4537 39.7365 31.3503 39.7023C31.3186 39.7197 31.2669 39.7558 31.2569 39.7789C31.2881 39.7714 31.3192 39.7845 31.3397 39.8057C31.392 39.8536 31.4232 39.9445 31.4954 39.9657L31.351 40.0989C31.3397 40.0068 31.0496 39.914 31.2675 39.7969C31.247 39.7913 31.2258 39.7845 31.2046 39.7776C31.1012 39.7372 31.0489 39.6531 31.1218 39.5335C31.194 39.3891 31.4643 39.4159 31.5676 39.5242ZM31.0689 39.9458C31.1735 40.0828 31.3391 40.2372 31.2768 40.4022C31.204 40.4788 31.1106 40.5286 30.9966 40.5018C30.8926 40.2864 30.6436 40.1357 30.7058 39.858C30.8304 39.8013 30.9244 39.6593 31.0172 39.5466C30.9861 39.6562 30.9655 39.8287 31.0689 39.9458Z" fill="white"/>
<path d="M29.8951 39.452C29.8851 39.4607 29.8851 39.4644 29.8851 39.4781C30.1137 39.4644 30.2793 39.683 30.3839 39.8256C29.9163 39.9109 29.6877 39.432 29.1996 39.5267V39.5728C29.7089 39.8561 30.1971 40.1226 30.6429 40.4838C30.7986 40.5815 31.0384 40.7627 31.2974 40.5697C31.1106 40.7584 30.7058 41.1419 30.3733 40.8717C30.2494 40.8144 30.4144 40.7079 30.4144 40.612C30.2587 40.6102 29.9792 40.6936 29.8851 40.5105C29.6149 40.2814 29.4069 39.9819 29.075 39.8704C29.1896 40.1176 29.4897 40.3492 29.4897 40.6855C29.2195 40.8704 29.3035 40.4395 29.1061 40.358C29.1061 40.5267 29.0956 40.7229 28.9916 40.8567C28.9081 40.9956 28.7114 41.0037 28.6696 41.1805C28.4511 40.6749 29.2817 40.1151 28.6796 39.7253L28.5868 39.7216C28.7114 39.1736 29.4387 39.4283 29.7917 39.0528C29.9997 38.8342 30.1236 38.729 30.3111 38.5067C30.3005 38.8411 30.3111 39.3181 29.8951 39.452Z" fill="white"/>
<path d="M28.504 39.4794C27.9019 40.4172 28.7643 41.3095 28.7742 42.274C28.8153 42.2336 28.8153 42.142 28.8371 42.0785C28.9411 41.6233 28.9094 40.9402 29.491 40.8531C29.6989 40.8207 30.1977 40.7117 30.2706 40.7192L29.9897 41.2385C29.4499 41.3475 29.1385 41.9266 28.9623 42.3861L28.9828 42.4017C29.0974 42.2112 29.2942 41.9951 29.5644 42.0181L29.6578 42.1283C29.585 42.1109 29.4293 42.0661 29.3565 42.1676C29.108 42.4135 29.014 42.8556 28.6192 42.9073C28.4324 42.8936 28.235 42.9266 28.0687 42.8669C28.2138 42.8307 28.2039 42.6302 28.1615 42.5194C28.0582 42.3631 27.923 42.2099 27.7263 42.1607C27.5706 42.1377 27.4249 42.1819 27.2898 42.228C27.3103 42.0605 27.4249 41.9752 27.5494 41.9011C27.3215 41.6788 26.9267 41.883 26.6982 41.6377C26.5525 41.5113 26.3968 41.3437 26.4902 41.132C26.5836 41.071 26.6876 41.0038 26.8016 41.0343C26.7598 41.0698 26.687 41.0735 26.687 41.1358C26.8844 41.1731 27.0612 40.9901 27.2686 41.1015C27.6528 41.1837 27.829 41.5804 28.037 41.8469C28.1927 42.0742 28.3072 42.3531 28.4934 42.5723C28.5146 42.1919 28.2748 41.8718 28.1403 41.5299C27.9124 41.053 27.3209 40.5125 27.7144 39.9165C27.9641 39.7733 28.245 39.6239 28.504 39.4794ZM23.6022 41.6806C23.1974 41.7143 23.104 42.1215 22.7821 42.2709V42.3033C23.4776 42.2554 24.0493 41.9615 24.6309 41.6022C24.2772 41.6215 23.9447 41.652 23.6022 41.6806ZM23.685 42.0268C23.7473 41.9484 23.6539 41.7597 23.8618 41.7709C23.7996 41.8512 23.9036 42.0437 23.685 42.0268ZM18.0777 39.6594C18.0671 39.764 18.0154 39.8854 17.932 39.9296L17.6517 39.6967C17.61 39.7908 17.5895 39.8997 17.5372 39.985C17.506 40.0442 17.3192 40.2092 17.3709 39.7677C17.402 39.6631 17.4955 39.5423 17.6094 39.5137C17.7557 39.4265 18.0154 39.4763 18.0777 39.6594ZM18.4824 40.9988C18.1711 41.0274 18.0048 40.736 17.7452 40.6021C17.7557 40.2752 18.1188 40.1432 18.1817 39.8393C18.2956 40.2322 18.1294 40.7304 18.4824 40.9988Z" fill="white"/>
<path d="M17.8697 40.1382C17.7663 40.216 17.7663 40.3499 17.6623 40.302C17.4544 40.2391 17.704 39.9869 17.6829 39.9047C17.7763 39.9757 17.9008 40.0691 17.8697 40.1382ZM19.1369 38.8125C19.4071 39.1008 19.7602 39.3586 20.2166 39.3816C20.3723 39.3978 20.5491 39.4352 20.7154 39.4246C20.8922 39.5964 21.1201 39.7141 21.297 39.8598V39.8922C21.0267 39.8997 20.7465 40.0616 20.6326 40.287C20.4252 40.6612 20.9028 40.9651 20.6531 41.3207C20.6637 41.3562 20.6425 41.4203 20.5908 41.3898C20.5286 41.094 20.1338 40.9576 20.2795 40.5822L20.2583 40.5654C20.1027 40.741 19.9258 40.9545 19.6356 40.8568C19.9781 40.6911 20.0404 40.1967 20.404 40.0224L20.622 39.891C20.5491 39.8679 20.4557 39.9103 20.3729 39.9315C19.8635 40.1538 19.5522 40.5311 19.1369 40.8462C18.5036 41.2391 18.3996 40.6058 18.3996 40.4526C18.4619 40.3854 18.5241 40.4582 18.597 40.4246C19.1057 40.2447 19.5005 39.9159 20.0198 39.7596C19.5833 39.5722 19.1163 40.094 18.7215 39.6861V39.64C19.0123 39.7963 19.3031 39.5753 19.5734 39.5043L19.5422 39.4756C19.2409 39.4426 18.8567 39.4943 18.7215 39.1848C18.6798 39.0124 18.7944 38.8237 18.7321 38.6531C18.8149 38.8237 19.0017 38.7452 19.1369 38.8125Z" fill="white"/>
<path d="M21.5255 40.1201C21.6401 40.2627 21.7329 40.4246 21.65 40.6413C21.4838 41.2161 20.9439 41.6308 20.9956 42.2865C21.4732 41.9241 21.6812 40.901 22.5013 41.2727C22.6152 41.2615 22.7298 41.2958 22.8232 41.3082C22.6569 41.378 22.6463 41.5679 22.5529 41.698C22.2522 42.0878 21.6289 41.8101 21.3275 42.2497C21.5666 42.1906 21.764 42.3543 21.9502 42.4453C22.0542 42.5181 21.9396 42.5941 21.8773 42.6532C21.7422 42.5499 21.5865 42.4272 21.3997 42.4789C21.244 42.515 21.0672 42.6283 20.995 42.7865C20.9121 43.0038 21.0678 43.162 21.1818 43.3183L20.2677 42.9801C20.2266 42.7205 19.9669 42.4284 19.7483 42.3182C19.6238 42.2609 19.437 42.307 19.3853 42.142V42.0984C19.5628 42.2423 19.7184 42.0268 19.9053 42.1264L20.0404 42.1868C20.0404 42.0928 19.9158 41.9714 19.833 41.9116C19.5528 41.6694 19.0024 41.4564 19.158 40.9545C19.376 41.2142 19.7807 40.9545 19.9887 41.2179C20.3934 41.4957 20.2066 42.1059 20.4875 42.4845C20.5497 42.3369 20.5186 42.2037 20.5286 42.0305C20.7154 41.3792 21.1207 40.8979 21.1207 40.1824C21.0896 40.165 21.079 40.1432 21.0896 40.1095C21.2135 40.0348 21.4215 40.008 21.5255 40.1201Z" fill="white"/>
<path d="M22.3562 42.5393C22.5224 42.6601 22.6781 42.7846 22.8126 42.9092L22.7921 42.9303C22.439 43.2741 21.9508 43.4957 21.4315 43.3413C21.3381 43.3338 21.2447 43.1614 21.2129 43.124C21.1924 43.0866 21.1718 43.0493 21.1507 43.01C21.1195 42.9029 21.1718 42.8961 21.2235 42.9029C21.6177 42.8762 21.9502 42.7641 22.2827 42.5368L22.3562 42.5393ZM22.9795 43.0642C23.0524 43.1458 23.1563 43.3145 23.218 43.4216C23.2286 43.4285 23.2392 43.4372 23.1663 43.5586C22.9795 43.7417 22.8238 43.7168 22.7921 43.7243C22.7715 43.7317 22.7404 43.7367 22.7192 43.7317C22.6987 43.7261 22.6464 43.705 22.7298 43.657C22.8855 43.5038 22.7921 43.2367 22.9272 43.0767C22.9272 43.0692 22.9477 43.0767 22.9795 43.0642ZM25.2847 39.0317C25.1807 38.9271 25.1496 38.7701 25.2224 38.701C25.2953 38.6319 25.451 38.6724 25.5549 38.7795C25.6483 38.886 25.6695 39.0279 25.5967 39.0977C25.5238 39.1668 25.3781 39.1388 25.2847 39.0317ZM25.6795 38.7434C25.5755 38.6369 25.5444 38.48 25.6172 38.4108C25.6901 38.3399 25.8457 38.3841 25.9497 38.4893C26.0537 38.5945 26.0643 38.7365 25.9915 38.8081C25.918 38.8772 25.7835 38.8486 25.6795 38.7434Z" fill="white"/>
<path d="M25.6066 38.0621C25.6894 38.1792 25.7106 38.3374 25.6278 38.3984C25.5444 38.4607 25.3993 38.4003 25.3059 38.2826C25.2224 38.1655 25.2224 38.021 25.2953 37.9619C25.3781 37.9002 25.5238 37.9451 25.6066 38.0621Z" fill="white"/>
<path d="M24.7236 39.891V37.3099V39.891Z" fill="white"/>
<path fill-rule="evenodd" clip-rule="evenodd" d="M24.9146 37.3099V39.891H24.5327V37.3099H24.9146Z" fill="white"/>
<path d="M24.6196 39.6812C24.4951 39.3293 24.3494 38.7876 24.0798 38.5728C23.8095 38.3579 23.5916 38.31 23.5194 38.1973L24.6196 39.6812ZM24.8071 39.6699C24.9316 39.2328 24.9839 38.8785 25.347 38.5833C25.7106 38.2876 25.8868 38.3237 25.8974 38.1456" fill="white"/>
<path fill-rule="evenodd" clip-rule="evenodd" d="M23.3103 38.3312L23.7188 38.0494L23.7247 38.0574C23.7271 38.0595 23.7316 38.063 23.7391 38.0681C23.7618 38.0835 23.7927 38.1008 23.8439 38.1287C23.8466 38.1301 23.8493 38.1316 23.852 38.133C23.949 38.1858 24.0847 38.2596 24.2343 38.3784C24.422 38.528 24.5457 38.7694 24.6334 38.9803C24.6555 39.0337 24.6768 39.0889 24.6972 39.1443C24.7839 38.8793 24.9134 38.6159 25.1903 38.3908M24.7498 39.6536L25.0458 39.738C25.0638 39.6749 25.08 39.6156 25.0953 39.5598C25.1943 39.198 25.2543 38.9786 25.5036 38.776C25.6417 38.6636 25.7447 38.608 25.8322 38.5607C25.8467 38.5529 25.8609 38.5452 25.8747 38.5376C25.9187 38.5133 25.9877 38.4745 26.0425 38.4138C26.1088 38.3401 26.1397 38.2532 26.1452 38.1603L25.6496 38.1309C25.6497 38.1296 25.6506 38.1227 25.6546 38.1125C25.6598 38.0994 25.6671 38.0886 25.6737 38.0813C25.6758 38.0789 25.6774 38.0776 25.6773 38.0775C25.6772 38.0774 25.6676 38.0848 25.6345 38.1031C25.6235 38.1092 25.6112 38.1158 25.5978 38.123C25.5081 38.1713 25.3665 38.2474 25.1903 38.3908M23.3383 38.3699L24.4202 39.829L24.7498 39.6536M23.3103 38.3312C23.3192 38.345 23.3285 38.3578 23.3383 38.3699L23.3103 38.3312Z" fill="white"/>
<path d="M26.1465 37.9731C26.0948 38.1101 25.9802 38.2135 25.8763 38.1792C25.7829 38.1468 25.7517 37.9905 25.7934 37.8523C25.8451 37.7153 26.0008 37.5908 26.0842 37.6406C26.1677 37.6991 26.1988 37.8361 26.1465 37.9731ZM23.5711 37.9357C23.6539 38.0516 23.675 38.2097 23.5916 38.2701C23.5088 38.3343 23.3631 38.2739 23.2697 38.1562C23.1869 38.0404 23.1763 37.8965 23.2591 37.8355C23.3425 37.7738 23.4776 37.8181 23.5711 37.9357ZM24.1738 38.2508C24.101 38.3791 23.9665 38.4569 23.8724 38.4059C23.779 38.3579 23.779 38.1973 23.8519 38.0715C23.9142 37.9432 24.0493 37.8809 24.1427 37.9301C24.2255 37.9818 24.246 38.1244 24.1738 38.2508ZM23.5088 38.5354C23.6022 38.4214 23.7473 38.3629 23.8307 38.4252C23.9135 38.4874 23.893 38.6456 23.8095 38.7614C23.7161 38.8772 23.581 38.9196 23.4982 38.8567C23.4154 38.7951 23.426 38.6506 23.5088 38.5354ZM24.568 38.6045C24.4746 38.7166 24.3289 38.7664 24.246 38.7004C24.1732 38.635 24.1944 38.4769 24.2871 38.366C24.3806 38.2539 24.5263 38.2184 24.5985 38.2844C24.6826 38.3523 24.6614 38.4943 24.568 38.6045Z" fill="white"/>
<path d="M23.9553 38.8056C24.0487 38.6985 24.2043 38.6562 24.2772 38.7253C24.3606 38.7963 24.3189 38.9526 24.2255 39.0578C24.1215 39.1649 23.9864 39.1929 23.9036 39.1232C23.8307 39.0547 23.8519 38.9121 23.9553 38.8056ZM25.1496 38.3361C25.2536 38.432 25.3052 38.5833 25.233 38.6618C25.1707 38.7384 25.0144 38.7116 24.9005 38.6176C24.7965 38.5217 24.7548 38.381 24.8276 38.3044C24.8899 38.2259 25.0356 38.2415 25.1496 38.3361ZM23.8824 36.8261C23.8718 36.8186 23.8201 36.7838 23.8307 36.7638C23.8413 36.7408 23.9135 36.7458 23.9241 36.7526C23.9447 36.7682 23.9347 36.7738 23.9758 36.8024C24.0069 36.8199 23.9963 36.8255 23.9758 36.8217C23.9447 36.8165 23.9129 36.818 23.8824 36.8261ZM25.1913 37.7415C25.2019 37.7595 25.2118 37.818 25.1913 37.8274C25.1707 37.838 25.1184 37.7894 25.1184 37.7776C25.1079 37.7508 25.1184 37.7489 25.1079 37.6991C25.0973 37.6705 25.1079 37.6686 25.1284 37.6904C25.1496 37.7296 25.1913 37.7415 25.1913 37.7415ZM25.5132 36.7545C25.5338 36.7526 25.5861 36.7545 25.596 36.7757C25.596 36.8006 25.5444 36.8348 25.5232 36.8348C25.502 36.8348 25.5026 36.8255 25.4503 36.8255C25.4192 36.8255 25.4192 36.8161 25.4397 36.808C25.4927 36.7869 25.5132 36.7545 25.5132 36.7545Z" fill="white"/>
<path d="M25.4615 36.9027C25.3887 36.8417 25.347 36.8666 25.4098 36.7881C25.4721 36.7103 25.431 36.5994 25.2747 36.5534C25.1191 36.5054 25.0879 36.4394 25.0045 36.3298C24.9111 36.219 24.8283 36.2408 24.766 36.3049C24.6931 36.369 24.7243 36.3759 24.6414 36.2956C24.548 36.2084 24.4646 36.2887 24.4229 36.3454C24.3712 36.4027 24.3712 36.4525 24.1427 36.5322C23.9247 36.6144 24.0181 36.7439 24.0387 36.7937C24.0387 36.7937 24.0904 36.8454 23.9764 36.8933C23.8936 36.9295 23.8936 37.0409 23.9658 37.1281C24.0387 37.2159 24.0486 37.3099 24.0592 37.4432C24.0698 37.5746 24.1215 37.6263 24.2149 37.6107C24.3083 37.597 24.3083 37.5839 24.3083 37.7122C24.3083 37.838 24.4328 37.8473 24.5574 37.8112C24.6925 37.7776 24.817 37.8224 24.931 37.8398C25.0555 37.8579 25.0761 37.7707 25.0867 37.691C25.0867 37.6088 25.0867 37.6375 25.1701 37.668C25.243 37.696 25.3258 37.6624 25.3258 37.4992C25.3364 37.3367 25.3675 37.2751 25.4609 37.1455C25.5543 37.016 25.5443 36.9643 25.4615 36.9027ZM25.3364 37.1125C25.2536 37.2228 25.2012 37.2993 25.2324 37.4376C25.2529 37.6013 25.1595 37.6281 25.1078 37.5814C24.9933 37.4893 24.9727 37.4139 25.025 37.5889C25.0456 37.6543 24.9939 37.7875 24.9005 37.7327C24.7548 37.6368 24.7031 37.6368 24.5891 37.6829C24.4957 37.7165 24.3401 37.752 24.3712 37.6275C24.4335 37.4058 24.4229 37.4538 24.2878 37.5335C24.2149 37.5727 24.1321 37.4961 24.1632 37.3859C24.2043 37.2881 24.1838 37.1474 24.101 37.0995C23.9864 37.0391 24.0281 36.8896 24.1115 36.899C24.454 36.9295 24.1321 36.8242 24.1321 36.8242C24.1115 36.78 24.0075 36.6623 24.2255 36.6231C24.4223 36.5857 24.4223 36.5808 24.4746 36.4761C24.5474 36.3373 24.6614 36.3105 24.672 36.4189C24.7137 36.6661 24.7137 36.6113 24.7548 36.4033C24.7654 36.3248 24.8899 36.3111 24.9416 36.4282C24.9833 36.5422 25.0562 36.6555 25.1907 36.6362C25.3675 36.6113 25.3881 36.7819 25.3152 36.8211C25.1701 36.9014 25.1489 36.9033 25.3563 36.9014C25.4404 36.9008 25.4198 37.0023 25.3364 37.1125Z" fill="white"/>
<path d="M24.246 37.7489C24.2354 37.7645 24.1838 37.8025 24.1632 37.7894C24.1526 37.7757 24.1738 37.7097 24.1738 37.7022C24.1943 37.6829 24.2049 37.6898 24.2467 37.6543C24.2672 37.6331 24.2672 37.6406 24.2572 37.6655C24.2361 37.7122 24.246 37.7489 24.246 37.7489ZM24.6719 36.1785C24.6719 36.1611 24.6931 36.1019 24.7137 36.1056C24.7342 36.1094 24.7548 36.1748 24.7448 36.186C24.7448 36.2127 24.7342 36.2109 24.7137 36.2607C24.7137 36.2893 24.7031 36.2856 24.6931 36.2588C24.6931 36.2103 24.6719 36.1785 24.6719 36.1785ZM25.1496 36.9625C25.1085 36.9251 25.0767 36.9413 25.1184 36.8952C25.1496 36.851 25.129 36.7869 25.0356 36.7601C24.9522 36.7314 24.9316 36.6941 24.8799 36.6318C24.8282 36.5664 24.7759 36.5783 24.7448 36.6162C24.7037 36.6536 24.7243 36.6567 24.6719 36.6106C24.6203 36.5608 24.568 36.6069 24.5474 36.6393C24.5163 36.6729 24.5163 36.7016 24.3812 36.7476C24.2566 36.7937 24.3083 36.8684 24.3189 36.8989C24.3189 36.8989 24.35 36.9295 24.2878 36.9575C24.2361 36.9793 24.2467 37.0415 24.2772 37.0932C24.3189 37.143 24.3288 37.1978 24.3394 37.2744C24.3394 37.351 24.3706 37.3815 24.4223 37.3703C24.4845 37.3629 24.4739 37.3566 24.4739 37.4307C24.4739 37.5036 24.5468 37.5073 24.6296 37.488C24.7025 37.4687 24.7747 37.4955 24.837 37.5054C24.9098 37.5167 24.9304 37.465 24.9304 37.4183C24.9304 37.3703 24.9304 37.3859 24.9721 37.4046C25.0238 37.422 25.0655 37.4027 25.0655 37.3068C25.0761 37.2128 25.086 37.1785 25.1483 37.1038C25.2019 37.0285 25.1913 36.9986 25.1496 36.9625ZM24.7137 37.262C24.5991 37.262 24.5063 37.1711 24.5063 37.0571C24.5063 36.945 24.5997 36.8529 24.7137 36.8529C24.8276 36.8529 24.921 36.945 24.921 37.0571C24.921 37.1704 24.8276 37.262 24.7137 37.262ZM24.9833 43.9515C24.8899 43.4609 25.1907 43.0854 25.3364 42.6657C25.4509 42.2423 25.2118 41.8867 24.9833 41.5984C25.3781 41.6158 25.7411 41.6426 26.1153 41.7155C26.5201 42.3519 27.1017 42.6688 27.7667 42.9341C28.0469 43.0462 28.4212 43.0673 28.7219 43.0013L28.7113 43.0455C28.4623 43.2081 28.1715 43.355 27.9012 43.4372C27.2057 43.1489 26.5095 42.8488 26.0836 42.1227C26.063 42.114 25.9796 42.137 25.9591 42.1495C26.1253 42.6065 26.6652 42.8239 26.5301 43.4073L26.6129 43.5281C26.3221 43.5493 26.1147 43.2703 25.969 43.0443C25.8962 42.9073 25.8133 42.751 25.7617 42.586C25.606 42.9733 25.6371 43.5163 25.2834 43.7436C25.1807 43.8127 25.0979 43.9397 24.9833 43.9515ZM31.7962 51.8267C31.7644 51.9531 31.7439 52.0845 31.7339 52.2203C31.7339 52.2732 31.7227 52.3573 31.6504 52.3977C31.661 52.4133 31.661 52.4301 31.671 52.4475C31.6915 52.5098 31.6816 52.5721 31.6504 52.625L31.6193 52.6555L31.5876 52.673L31.3385 52.7907L31.308 52.8012H31.2762C31.2451 52.8031 31.1205 52.7994 31.0583 52.7141C31.0165 52.668 30.9954 52.6032 31.0165 52.536C31.0271 52.4793 31.0477 52.4295 31.0682 52.3884C31.0682 52.3672 31.0794 52.3492 31.0888 52.3336L31.0788 52.3461C31.0994 52.2819 31.1305 52.2464 31.1616 52.2234C31.151 52.2097 31.151 52.1916 31.1411 52.1723C31.1305 52.1094 31.1411 52.0459 31.1934 51.9749L31.1822 51.9886C31.255 51.8249 31.2862 51.6312 31.2451 51.4656C30.8814 51.2651 30.425 51.0602 29.8945 50.8734C29.8534 50.8964 29.8116 50.9076 29.7911 50.9095C29.4274 50.9768 29.1366 51.0621 28.9081 51.27C28.8876 51.2968 28.8564 51.313 28.8253 51.3236C28.8253 51.4058 28.773 51.4805 28.6696 51.5104L28.6491 51.5179H28.6379L28.202 51.5197C28.1185 51.5141 28.0357 51.4986 27.9741 51.3989L27.984 51.4201C27.9741 51.4027 27.9218 51.3454 27.9324 51.2638C27.9324 51.214 27.9635 51.1679 28.0046 51.1355L27.984 51.1586C28.0774 51.0378 28.1814 51.0272 28.2649 51.0428V51.0085C28.2748 50.9768 28.306 50.9251 28.3888 50.902C28.4 50.8946 28.4205 50.879 28.4411 50.8616C28.4928 50.8155 28.5968 50.7333 28.7319 50.7694C28.7842 50.7476 28.8465 50.7283 28.8988 50.7102C28.9816 50.6816 29.0644 50.6567 29.1373 50.6231C28.6385 50.4774 28.0986 50.3453 27.5382 50.2407C27.4759 50.3933 27.3931 50.5483 27.3097 50.7046C26.8532 51.4961 26.1054 52.1885 25.0356 52.8268L25.0767 52.8037C24.9005 52.9339 24.6614 52.9339 24.4951 52.8162C23.4359 52.1829 22.6986 51.4911 22.231 50.6853C22.1476 50.5272 22.0753 50.3703 22.0025 50.2158C21.7951 50.2551 21.5871 50.2974 21.3897 50.3453C21.4103 50.3684 21.4315 50.3896 21.4414 50.4026C21.5037 50.5041 21.462 50.577 21.4414 50.6038C21.4315 50.6136 21.4211 50.623 21.4103 50.6318V50.643C21.4209 50.7003 21.4103 50.7569 21.3692 50.7943C21.3275 50.8242 21.2864 50.8385 21.2341 50.8366C21.2341 50.8472 21.2447 50.8578 21.2447 50.8665C21.2552 50.9606 21.2135 51.0496 21.1307 51.0938C21.0896 51.1187 20.9644 51.158 20.7982 51.0384C20.7776 51.0976 20.7253 51.1306 20.6836 51.1436C20.6108 51.1611 20.5385 51.1343 20.4868 51.0783C20.4657 51.1013 20.4352 51.1187 20.4034 51.1274C20.3305 51.1436 20.2477 51.1187 20.196 51.044C20.1649 51.0577 20.1338 51.0689 20.0921 51.0633C20.0404 51.0546 19.9881 51.0191 19.9569 50.955C19.9258 50.9687 19.8947 50.978 19.8529 50.978C19.7907 50.9743 19.7284 50.9357 19.6973 50.8516C19.2091 51.0384 18.7732 51.2358 18.4301 51.4319C18.4301 51.4407 18.4407 51.4512 18.4407 51.4618C18.4513 51.4762 18.4513 51.4979 18.4513 51.5172C18.5341 51.5577 18.6069 51.6312 18.5964 51.729C18.5858 51.7863 18.5553 51.8249 18.503 51.8498C18.5235 51.8747 18.5341 51.8996 18.544 51.9282C18.5652 51.9973 18.5335 52.0671 18.4818 52.1094C18.4201 52.163 18.3161 52.1611 18.1916 52.102C18.1711 52.186 18.0982 52.2514 18.0048 52.2695C17.9114 52.2856 17.8286 52.2558 17.7663 52.1954C17.7557 52.2041 17.7451 52.2128 17.7352 52.2215C17.6623 52.2663 17.5795 52.2607 17.5066 52.2078C17.4861 52.2701 17.4649 52.3286 17.4649 52.3859C17.4649 52.4943 17.5066 52.5976 17.6001 52.6935C18.2339 53.3336 21.4632 53.8729 24.7971 53.8941C28.2032 53.9134 32.1604 53.2465 32.1604 52.3554C32.1598 52.1978 32.0353 52.0166 31.7962 51.8267ZM30.7058 52.6537L30.6224 52.8106L30.5396 52.9575C30.5396 52.9575 27.5071 53.5983 24.8276 53.5734C21.6183 53.5466 18.6792 52.8398 18.6792 52.8398C18.6792 52.8398 18.4924 52.5198 18.4924 52.493C18.4924 52.2987 18.5652 52.3398 18.648 52.4096C18.7209 52.4749 18.7209 52.5086 18.7309 52.3828C18.7309 52.3043 18.7825 52.1586 18.866 52.295C18.9388 52.4096 18.9077 52.3485 18.9282 52.3112C18.9594 52.2383 19.0945 52.1331 19.1356 52.295C19.1773 52.4588 19.1568 52.3828 19.219 52.3292C19.2919 52.2757 19.3953 52.2452 19.3953 52.3579C19.3953 52.493 19.4059 52.4569 19.4575 52.422C19.5092 52.3878 19.5821 52.3722 19.5821 52.4874C19.5821 52.63 19.5821 52.5908 19.6132 52.5752C19.6549 52.5428 19.7278 52.5752 19.7278 52.5752C19.7278 52.5752 19.7589 52.5877 19.7695 52.6032C19.8424 52.6692 19.7901 52.5964 19.7901 52.5715C19.7483 52.2757 19.8417 52.3224 19.9351 52.399C20.008 52.4631 20.008 52.4986 20.0186 52.3722C20.0186 52.2937 20.0597 52.1487 20.1537 52.285C20.216 52.399 20.1848 52.338 20.2054 52.2987C20.2471 52.2277 20.3822 52.1213 20.424 52.285C20.4651 52.4488 20.4445 52.3722 20.5068 52.3187C20.569 52.2639 20.673 52.2333 20.673 52.3473C20.6836 52.4812 20.6942 52.4469 20.7459 52.4114C20.7976 52.3778 20.8704 52.3604 20.8704 52.4774C20.8598 52.62 20.8704 52.5802 20.8916 52.5627C20.9327 52.5304 21.089 52.5472 21.0055 52.6537L20.9227 52.7994H21.3275C21.1506 52.6979 21.2235 52.5023 21.3586 52.5771C21.3586 52.5771 21.3897 52.5933 21.3997 52.6076C21.4726 52.6823 21.4209 52.6038 21.4209 52.5789C21.4103 52.2819 21.4937 52.3336 21.5766 52.417C21.6494 52.4899 21.6494 52.5241 21.67 52.3996C21.6805 52.323 21.7322 52.1792 21.8051 52.323C21.8674 52.4438 21.8362 52.3784 21.8674 52.3423C21.9091 52.2751 22.0542 52.1804 22.0747 52.3461C22.1058 52.5148 22.0853 52.4351 22.1581 52.3871C22.231 52.3386 22.3344 52.3174 22.3244 52.4295C22.3244 52.5646 22.335 52.5304 22.3867 52.5005C22.4384 52.47 22.5112 52.4594 22.5012 52.5764C22.4907 52.7178 22.5012 52.6798 22.5218 52.6642C22.5735 52.6319 22.7192 52.6642 22.6258 52.7639L22.5324 52.9009L23.01 53.1412C22.8338 53.0254 22.9272 52.8355 23.0617 52.9239C23.0617 52.9239 23.0928 52.9395 23.1034 52.9575C23.1551 53.036 23.1239 52.9563 23.1239 52.9295C23.1345 52.6319 23.2173 52.691 23.2902 52.7819C23.3525 52.8604 23.3525 52.8959 23.3836 52.7707C23.3942 52.6948 23.4664 52.5571 23.5287 52.7085C23.5804 52.8293 23.5492 52.7657 23.5804 52.7296C23.6321 52.6674 23.7778 52.5839 23.7983 52.7527C23.8089 52.9233 23.7983 52.8436 23.8712 52.8006C23.944 52.7577 24.048 52.7433 24.0374 52.856C24.0163 52.9893 24.0374 52.9569 24.0891 52.9326C24.1514 52.9077 24.2242 52.9021 24.2031 53.0161C24.1719 53.1568 24.1925 53.1213 24.2136 53.1051C24.2554 53.0802 24.411 53.1232 24.3071 53.2141L24.2031 53.3436L24.4627 53.2066C24.4833 53.1836 24.5144 53.1817 24.5455 53.239C24.6078 53.3312 24.5767 53.2813 24.5972 53.2496C24.6284 53.191 24.7324 53.1057 24.7741 53.239C24.8052 53.3722 24.7847 53.31 24.8363 53.2658C24.888 53.2228 24.9715 53.196 24.9814 53.2907L25.0437 53.2477C25.0848 53.2141 25.1371 53.2514 25.1583 53.2514L25.2517 53.191C25.1477 53.1001 25.3034 53.0553 25.3451 53.0839C25.3762 53.0983 25.3868 53.1338 25.3662 52.9949C25.3451 52.8791 25.4179 52.8847 25.4702 52.9096C25.5219 52.9339 25.5431 52.9663 25.5219 52.8349C25.5113 52.7222 25.6153 52.7352 25.6882 52.7776C25.761 52.8181 25.7505 52.8984 25.7716 52.7296C25.7822 52.5621 25.9273 52.6443 25.979 52.7085C26.0101 52.7427 25.9896 52.8081 26.0307 52.6835C26.1035 52.5341 26.1658 52.6711 26.1863 52.7477C26.2069 52.8722 26.2069 52.8374 26.2692 52.7589C26.352 52.6699 26.4248 52.6094 26.4354 52.9083C26.446 52.9332 26.4043 53.0472 26.456 52.9687L26.6534 52.9575C26.4665 52.8567 26.5182 52.6717 26.6639 52.734C26.6639 52.734 26.6951 52.7477 26.7057 52.7626C26.7785 52.8299 26.7262 52.757 26.7262 52.7303C26.6845 52.4345 26.7779 52.4799 26.8613 52.5578C26.9441 52.6238 26.9441 52.6555 26.9547 52.5329C26.9547 52.4532 26.9965 52.3074 27.0793 52.4438C27.1521 52.5578 27.121 52.4992 27.1415 52.4575C27.1833 52.3871 27.3184 52.2819 27.3601 52.4438C27.4012 52.6076 27.3807 52.5329 27.4429 52.4781C27.5058 52.4245 27.6098 52.394 27.6098 52.5061C27.6198 52.64 27.6304 52.6038 27.682 52.5721C27.7337 52.5378 27.8066 52.5223 27.7966 52.6362C27.7966 52.7788 27.8072 52.7415 27.8277 52.7234C27.8483 52.7078 27.9006 52.6723 27.9423 52.6543C27.8801 52.5652 27.9423 52.46 28.0463 52.5067C28.0463 52.5067 28.0774 52.5229 28.098 52.5353C28.1708 52.6026 28.1092 52.5316 28.1092 52.5055C28.0774 52.2078 28.1603 52.2526 28.2537 52.3311C28.3265 52.3965 28.3371 52.4307 28.3371 52.3062C28.3371 52.2259 28.3888 52.0802 28.4722 52.219C28.5445 52.3311 28.514 52.272 28.5351 52.2315C28.5663 52.1605 28.7014 52.054 28.7425 52.219C28.7842 52.3828 28.7637 52.3062 28.8259 52.2526C28.8988 52.1972 29.0021 52.1673 29.0021 52.2794C29.0021 52.4127 29.0127 52.3791 29.0644 52.3448C29.1167 52.313 29.1896 52.2931 29.1896 52.4108C29.1896 52.5534 29.1995 52.5136 29.2201 52.4961C29.2618 52.46 29.4175 52.4787 29.3347 52.587L29.4281 52.5764C29.4281 52.5764 29.4598 52.5889 29.4804 52.6045C29.5426 52.6705 29.4903 52.5976 29.4903 52.5727C29.4492 52.2769 29.5426 52.3236 29.636 52.4002C29.7089 52.4644 29.7089 52.4999 29.7189 52.3734C29.7189 52.295 29.76 52.1499 29.854 52.2863C29.9169 52.4002 29.8857 52.3392 29.9063 52.3C29.9474 52.229 30.0825 52.1225 30.1242 52.2863C30.1659 52.45 30.1448 52.3734 30.2077 52.3199C30.2706 52.2651 30.3739 52.2346 30.3845 52.3485C30.3845 52.4824 30.3945 52.4482 30.4468 52.4127C30.4985 52.3791 30.5713 52.3616 30.5713 52.4787C30.5607 52.6213 30.5713 52.5814 30.5919 52.564C30.633 52.5304 30.7893 52.5472 30.7058 52.6537ZM26.6241 44.512C26.6758 44.3432 26.8109 44.3196 26.9772 44.3357L26.956 44.6452L26.8003 44.6876C26.8003 44.6876 26.6652 44.7268 26.6029 44.7411C26.5406 44.7554 26.5301 44.7274 26.5718 44.6328C26.6141 44.5356 26.6241 44.512 26.6241 44.512ZM28.7325 46.1646C28.3483 46.4423 27.8813 46.6684 27.4554 46.9722C27.3302 47.088 27.3719 47.2088 27.4348 47.3296C27.57 47.5146 27.5382 48.0663 27.7667 48.326C27.8078 48.3527 27.8601 48.344 27.9018 48.3316C27.9429 48.3179 27.933 48.3191 27.9535 48.2836C27.9747 48.2606 27.9847 48.2357 27.9535 48.2263C27.829 48.2126 27.8184 48.0875 27.829 47.981C27.8607 47.9137 27.8495 47.8888 27.8084 47.8527C27.6939 47.6771 27.715 47.4455 27.6634 47.2499C27.7468 47.1983 27.8402 47.0986 27.8296 46.9809C28.1104 46.8639 28.4012 46.8029 28.692 46.7281L28.7325 46.1646ZM28.0986 48.3042L28.2026 48.6809C28.2026 48.6809 28.192 48.7201 28.1609 48.6952C28.037 48.6305 28.0469 48.7089 28.0469 48.7089C28.0469 48.7089 28.0158 48.7718 27.9953 48.7164C27.9429 48.6454 27.9018 48.5688 27.8495 48.5028C27.8184 48.4742 27.8396 48.4623 27.8607 48.4623C27.9436 48.4511 28.0052 48.4088 28.0476 48.3322C28.0681 48.2245 28.0986 48.3042 28.0986 48.3042ZM28.5663 45.9653C28.4934 45.9722 28.3271 46.0183 28.3066 45.9118C28.3583 45.5394 28.2443 45.1876 28.2232 44.8102C28.2026 44.5369 28.0675 44.2604 27.735 44.4117C27.6627 44.4366 27.0606 44.629 27.0606 44.629L27.0811 44.3196C27.0811 44.3196 27.1646 44.266 27.258 44.2106C27.3508 44.1626 28.2549 43.8463 28.3894 44.2909C28.4828 44.6664 28.5563 44.9952 28.6385 45.342C28.6385 45.342 28.6702 45.5307 28.7637 45.6303C28.867 45.7262 28.8047 45.9093 28.8047 45.9093L28.5663 45.9653Z" fill="white"/>
<path d="M28.0986 48.3042L28.2026 48.6809C28.2026 48.6809 28.192 48.7201 28.1609 48.6952C28.037 48.6305 28.0469 48.7089 28.0469 48.7089C28.0469 48.7089 28.0158 48.7718 27.9953 48.7164C27.9429 48.6454 27.9018 48.5688 27.8495 48.5028C27.8184 48.4742 27.8396 48.4623 27.8607 48.4623C27.9436 48.4511 28.0052 48.4088 28.0476 48.3322C28.0681 48.2245 28.0986 48.3042 28.0986 48.3042ZM30.633 41.0897L30.9755 42.8506L30.5913 42.865L30.633 41.0897ZM30.5495 42.2709C30.3939 42.3114 30.3011 42.3898 30.311 42.4633C30.3316 42.538 30.3521 42.515 30.3733 42.5219C30.3939 42.5275 30.4462 42.5219 30.4144 42.5026C30.3939 42.4814 30.3939 42.426 30.4773 42.426C30.6018 42.4222 30.5495 42.2709 30.5495 42.2709ZM28.0887 51.3248C28.0887 51.3248 28.037 51.275 28.0887 51.2433C28.1927 51.1113 28.2755 51.1935 28.4006 51.2321C28.5451 51.3192 28.6285 51.2414 28.6914 51.303C28.712 51.3454 28.6597 51.3703 28.6391 51.3796L28.2032 51.3815C28.1403 51.3803 28.1198 51.3691 28.0887 51.3248ZM31.3086 52.3336C31.4014 52.3654 31.5994 52.4563 31.5365 52.5491L31.2768 52.6661C31.2768 52.6661 31.1212 52.6699 31.1417 52.5646C31.1623 52.4992 31.194 52.4438 31.2146 52.3815C31.2351 52.3155 31.2768 52.3243 31.3086 52.3336ZM30.166 48.5003C30.2071 48.5003 30.2905 48.5128 30.2799 48.6068C30.2911 48.6765 30.3011 48.7388 30.2799 48.8222C30.3322 48.9617 30.5607 49.0981 30.4051 49.237L30.2905 49.4219C30.2905 49.4219 30.2699 49.5078 30.1448 49.506C29.9792 49.5452 29.8229 49.6585 29.74 49.826C29.6778 50.1181 29.7512 50.4331 29.8447 50.6909C29.8546 50.714 29.8857 50.7582 29.7718 50.7744C29.4187 50.8391 29.0856 50.9294 28.816 51.1698C28.806 51.1835 28.7749 51.2246 28.7537 51.1586C28.6914 51.077 28.5152 51.1642 28.4318 51.0876C28.4106 51.0751 28.3589 51.0378 28.4424 51.0291C28.5457 50.9811 28.598 50.851 28.7331 50.9145C28.9822 50.808 29.2936 50.7868 29.4287 50.534C29.4492 50.506 29.491 50.4313 29.4399 50.3721C29.2319 49.8702 28.8371 49.3409 29.1279 48.7394C29.3764 48.4791 29.8229 48.486 30.166 48.5003ZM24.558 45.1969L23.2597 44.7449C23.4154 44.5668 23.6339 44.4298 23.7896 44.2735C23.6028 43.5549 23.2497 42.9073 22.5953 42.4913C23.4677 42.4378 24.2049 42.2423 24.8177 41.632C25.0462 41.9203 25.2747 42.2529 25.1608 42.6782C25.0051 43.1284 24.662 43.53 24.8283 44.0817L24.9011 44.1384C25.2542 44.0394 25.545 43.8308 25.7006 43.4503L25.8046 42.9963C25.8669 43.2012 26.1266 43.3612 26.0643 43.5923C25.9914 44.0107 26.1266 44.3451 26.3134 44.6596C26.3028 44.6938 26.2922 44.7611 26.2306 44.7324C25.9709 44.5282 25.5967 44.4889 25.2542 44.5437C24.9322 44.6185 24.662 44.8376 24.5686 45.1969H24.558ZM24.2983 44.304C24.3089 44.144 24.2672 43.4111 23.7684 42.6943L23.6539 42.7249C24.152 43.4416 24.2043 44.1975 24.1838 44.3576L24.2983 44.304ZM18.4824 42.5287C18.5341 42.5517 18.5135 42.5841 18.5553 42.5163C18.5864 42.5019 18.6281 42.4932 18.6175 42.4378C18.6175 42.411 18.5964 42.3955 18.5758 42.3805C18.5341 42.3469 18.503 42.3519 18.5241 42.3917C18.5347 42.4185 18.5447 42.4415 18.5447 42.4646C18.5447 42.4801 18.5447 42.4982 18.5241 42.5125C18.5036 42.5106 18.493 42.4895 18.483 42.4683C18.4724 42.4359 18.4519 42.454 18.4519 42.4627C18.4413 42.4733 18.4201 42.5163 18.4824 42.5287ZM22.9583 44.469C22.9066 44.238 22.8232 43.959 22.6569 43.8606L21.3487 43.7529C21.1201 43.7417 21.0784 43.7205 20.9545 43.9895C20.6948 44.6209 20.404 45.3968 20.3835 45.7306C20.3729 45.834 20.508 46.0936 20.6948 45.7754C20.975 45.3483 21.4215 44.0605 21.5361 44.3108C21.7023 44.6932 21.8686 44.6596 21.7646 44.347C21.7229 44.2224 21.8997 44.2629 21.9514 44.3806C22.066 44.6477 22.2628 44.6708 22.1594 44.3899C22.1283 44.2866 22.2734 44.3208 22.3257 44.4186C22.4608 44.6602 22.6165 44.6708 22.5231 44.4541C22.4714 44.3314 22.6059 44.3439 22.6893 44.479C22.8238 44.6863 23.0829 44.715 22.9583 44.469ZM19.064 45.2007C19.0852 45.2679 19.1057 45.2785 19.1157 45.2113C19.1574 45.0164 19.1674 44.9921 19.0117 44.7511C18.9735 44.7761 18.9314 44.7947 18.8872 44.8059C18.9183 44.865 18.96 44.936 19.0011 45.0263C19.0329 45.0992 19.0534 45.1565 19.064 45.2007ZM19.0229 44.5668C19.0852 44.5026 19.1163 44.4229 19.1163 44.3339C19.1163 44.1353 18.9501 43.9746 18.7533 43.9746C18.5565 43.9746 18.4002 44.1353 18.4002 44.3339C18.4002 44.5244 18.5453 44.6813 18.7327 44.6913C18.7327 44.6913 18.8884 44.6701 18.9401 44.6415C18.9395 44.6334 18.9395 44.6415 19.0229 44.5668Z" fill="white"/>
<path d="M17.5895 43.6551C17.6935 43.5443 17.7968 43.3326 17.8597 43.1838C17.8909 43.1321 17.9114 43.1283 17.9326 43.1283C18.026 43.1439 17.9432 43.2921 17.9432 43.2921C17.9432 43.2921 17.6941 43.7205 17.8915 44.1589C18.0471 44.4858 18.3174 44.7972 18.3479 45.1708C18.3896 45.6814 18.2128 45.8539 18.4724 45.5942C18.5036 45.5425 18.5347 45.4734 18.5453 45.375C18.5559 45.1994 18.5559 45.1365 18.4208 44.8937C18.2962 44.6994 18.483 44.733 18.597 44.9092C18.7215 45.0873 18.7527 45.1477 18.7116 45.3183C18.6387 45.5867 18.7321 45.5587 18.805 45.4267C18.8778 45.3078 18.909 45.121 18.7738 44.8364V44.8252C18.7632 44.8252 18.7632 44.827 18.7533 44.827C18.483 44.827 18.2651 44.6066 18.2651 44.3345C18.2651 44.0624 18.4837 43.8419 18.7533 43.8419C19.0229 43.8419 19.2514 44.0624 19.2514 44.3345C19.2514 44.4628 19.1997 44.5749 19.1163 44.6614C19.158 44.715 19.1991 44.7785 19.2309 44.8557C19.366 45.1689 19.4694 44.8937 19.2826 44.4752C19.1786 44.2442 19.4177 44.4273 19.5316 44.6035C19.6356 44.7791 19.5316 44.9665 19.3243 45.2561C19.1169 45.5481 19.2726 45.7542 19.3554 45.9018C19.4488 46.0494 19.4488 45.8252 19.4594 45.7972C19.48 45.6745 19.4905 45.5998 19.7297 45.2685C19.9688 44.9379 19.9165 44.7224 19.7813 44.5338C19.6462 44.3469 19.833 44.3146 19.9059 44.327C20.1132 44.365 20.2278 44.6278 20.2689 44.6844C20.3835 45.0531 20.0927 45.3358 20.0927 45.6951C20.1132 45.7872 20.1444 45.8607 20.1967 45.928C20.3113 46.0774 20.3212 46.083 20.4252 46.0668C20.4563 46.06 20.5186 46.0151 20.404 46.0151C20.3523 45.9958 20.3729 45.946 20.3312 45.8931C20.3 45.8271 20.2689 45.7243 20.3106 45.5836C20.404 45.1583 20.6737 44.5904 20.2484 44.134C19.8119 43.6003 19.6879 43.6769 19.5528 43.7C19.262 43.7834 18.7533 43.5698 18.701 43.515C18.701 43.515 18.6593 43.421 18.6387 43.3463C18.6387 43.3288 18.6387 43.2678 18.701 43.3232C18.8255 43.3961 18.9606 43.4509 19.0852 43.4721C19.1163 43.4758 19.2097 43.5219 19.1786 43.378C19.1786 43.3425 19.158 43.3108 19.1369 43.2965C19.0229 43.3289 18.95 43.2678 18.8772 43.2093C18.8666 43.195 18.8361 43.1539 18.9189 43.1445C19.1786 43.0966 19.4382 43.1906 19.6767 43.2155C19.7079 43.2174 19.843 43.2404 19.8741 43.1358C19.8847 43.0729 19.8953 42.9901 19.8847 42.9222C19.8536 42.8438 19.833 42.8562 19.8013 42.9092C19.5005 43.2379 19.1885 42.7846 18.8355 43.0069C18.8043 43.0206 18.7421 43.1065 18.7421 42.9745V42.9092C18.7632 42.7971 18.8566 42.774 18.95 42.7547C19.0746 42.6918 19.1057 42.8114 19.1057 42.8114C19.1057 42.8114 19.1468 42.8842 19.168 42.8045C19.1786 42.7491 19.1786 42.6974 19.2091 42.6458C19.2714 42.5835 19.1985 42.5567 19.1985 42.5567C19.1157 42.4857 19.1256 42.3842 19.2402 42.4727C19.2508 42.4857 19.2813 42.5492 19.3025 42.4216C19.3131 42.3469 19.2508 42.345 19.2296 42.3375C19.0634 42.2971 18.8766 42.2734 18.7309 42.3531C18.6686 42.3643 18.752 42.439 18.752 42.439C18.7726 42.4888 18.752 42.5405 18.7209 42.5654C18.4924 42.7392 18.5652 42.7273 18.3367 42.5779C18.2638 42.5548 18.3261 42.4839 18.3261 42.4839C18.3261 42.4839 18.399 42.3556 18.285 42.4266C18.1188 42.482 17.9836 42.4179 17.8591 42.3357C17.7034 42.2043 17.6306 42.208 17.61 42.2111C17.5166 42.2242 17.5166 42.3282 17.5372 42.4066C17.5477 42.4565 17.5683 42.5156 17.5683 42.5685C17.5372 42.7143 17.5477 42.6563 17.5888 42.7143C17.6094 42.7522 17.6405 42.7834 17.6822 42.8052C17.7757 42.8587 17.7651 42.7771 17.7651 42.7771C17.7651 42.7771 17.7869 42.7367 17.7557 42.7223C17.7451 42.7093 17.7869 42.7012 17.7763 42.6881C17.7451 42.637 17.7034 42.5741 17.7246 42.5106C17.7557 42.4453 17.704 42.4091 17.6729 42.3936C17.5795 42.3743 17.6212 42.3132 17.6524 42.2958C17.6729 42.2921 17.7669 42.2939 17.7974 42.3562C17.8491 42.4882 17.922 42.6271 17.912 42.7747C17.912 42.8456 17.9014 42.8475 17.8603 42.8724C17.6218 43.0362 17.5801 43.3861 17.4867 43.6246C17.4444 43.705 17.5484 43.705 17.5895 43.6551Z" fill="white"/>
<path d="M21.3904 47.4255C21.1102 46.7462 20.4663 46.4685 20.0092 45.885C19.8741 45.545 20.0821 45.2623 20.1755 44.9423C20.1755 44.7835 20.0927 44.6577 20.0092 44.5506C19.8642 44.403 19.833 44.4316 19.9576 44.5774C20.2901 45.1122 19.6145 45.3943 19.5211 46.1335C19.5211 46.1945 19.4899 46.1964 19.4382 46.1584C19.2203 46.0425 19.1269 45.7885 19.0852 45.5643C19.0746 45.4915 19.054 45.5151 19.0335 45.5593C18.9606 45.6602 18.8566 45.753 18.7427 45.7885C18.6698 45.8327 18.587 45.7904 18.5247 45.7617C18.2545 45.6191 18.0471 47.1653 17.808 47.4978C17.6007 47.8054 17.455 48.1298 17.4755 48.5613C17.4755 48.5862 17.4649 48.6628 17.4238 48.7126C17.2576 48.9437 17.0813 49.2015 16.8628 49.3727C16.4269 49.6535 16.0109 49.2731 16.3435 48.6454C16.8422 48.0071 17.4755 47.3184 17.7769 46.5388C17.9014 46.0998 17.8597 45.6583 17.351 45.3956C17.143 45.271 16.6031 45.3956 16.5826 45.0269C16.5826 44.9734 16.6343 44.9398 16.6866 44.9149C16.7382 44.8956 16.6866 44.8476 16.6554 44.8364C16.6349 44.8289 16.6143 44.8271 16.5826 44.8308C16.4786 44.87 16.3958 44.9678 16.4057 45.0855C16.3951 45.192 16.4163 45.3003 16.3852 45.37C16.2295 45.5263 16.0109 45.54 16.001 45.3339C16.0116 45.0761 16.1567 44.7953 15.9804 44.5587C15.9076 44.4927 15.7208 44.5107 15.8659 44.644C15.887 44.6832 15.9175 44.6571 15.887 44.8021C15.8764 44.8787 15.8453 44.9479 15.8248 45.0107C15.7314 45.2773 15.7413 45.3931 15.8142 45.5207C15.8453 45.5724 15.887 45.6185 15.9281 45.6565C16.1149 45.8016 16.4474 45.692 16.6343 45.5917C16.7071 45.5668 16.7588 45.5351 16.8105 45.5226C16.9662 45.4784 17.0079 45.5631 16.8522 45.6204C16.5514 45.7287 16.6654 46.06 16.4263 46.2238C16.3534 46.2449 16.3117 46.1808 16.26 46.1577C16.2083 46.1297 16.1872 46.2076 16.2812 46.2574C16.3852 46.3302 16.4574 46.3321 16.5614 46.3184C16.7588 46.2038 16.8316 45.9765 16.9662 45.8308C17.2569 45.5481 17.3815 45.8184 17.4126 45.9199C17.5583 46.4859 17.3921 46.6266 16.9456 47.3328C16.9251 47.3651 16.8727 47.4162 16.8628 47.3521C16.8005 47.1976 16.6654 47.075 16.6965 46.8826C16.7071 46.8346 16.7482 46.8116 16.7899 46.8004C16.8416 46.7935 16.9145 46.7456 16.8522 46.7045C16.7376 46.6621 16.6237 46.6995 16.5409 46.7904C16.4998 46.8863 16.4474 47.0021 16.5203 47.1074C16.6654 47.2618 16.7277 47.6105 16.5932 47.4629C16.5309 47.2674 16.3958 47.2244 16.2401 47.169C16.0632 47.1366 16.0327 47.1248 15.9698 47.06C15.9076 46.9822 15.8659 46.9747 15.8553 47.0463C15.7513 47.5588 16.354 47.306 16.478 47.6441C16.4885 47.7263 16.4263 47.7686 16.3117 47.6615C16.1971 47.5227 16.052 47.6049 15.907 47.631C15.8447 47.6366 15.803 47.6366 15.7619 47.5937C15.6373 47.4691 15.7102 47.6808 15.7102 47.6808C15.7619 47.8054 15.8764 47.8216 15.9904 47.8234C16.0944 47.8253 16.1461 47.8415 16.1772 47.8982C16.2918 48.0246 16.1567 48.0744 16.0421 48.0121C15.9487 47.9729 15.907 47.9785 15.793 48.0159C15.6579 48.1304 15.5439 48.2631 15.5856 48.4517C15.5962 48.4823 15.6168 48.5159 15.6373 48.5439C15.7201 48.608 15.7519 48.5458 15.7307 48.5134C15.679 48.4088 15.7619 48.3091 15.8453 48.2612C15.8764 48.2475 15.897 48.2438 15.9281 48.2487C15.9593 48.2537 16.0527 48.2593 16.0527 48.3976C16.0527 48.5314 15.9904 48.6522 15.9281 48.7799C15.8036 49.0626 15.8553 49.7295 16.2918 49.7706C16.4269 49.7818 16.4892 49.7694 16.6031 49.7656C16.6031 49.8241 16.5826 49.9095 16.5826 49.9605C16.562 50.0944 16.6137 50.1797 16.6866 50.2046C16.8217 50.2544 16.8528 50.1872 16.8734 50.1654C16.9151 50.1274 16.9045 50.0695 16.8945 50.0832C16.8734 50.0975 16.8528 50.1012 16.8429 50.1012C16.77 50.0975 16.6872 50.0689 16.7495 49.9537C16.9157 49.6728 17.1853 49.4929 17.4139 49.2313C17.445 49.1959 17.549 49.194 17.6218 49.3596C17.7358 49.6461 18.0266 49.8559 17.9226 50.2152C17.8497 50.3696 17.6629 50.4556 17.5801 50.4213C17.5179 50.3964 17.4973 50.4288 17.5073 50.4462C17.549 50.4923 17.5384 50.7501 17.2893 50.7021C17.0297 50.6561 17.2582 50.8111 17.3622 50.836C17.4761 50.8628 17.3827 50.9338 17.3205 50.9481C17.2165 50.9749 17.2582 51.1293 17.3622 51.0726C17.4662 51.0154 17.4761 51.0863 17.3516 51.2059C17.237 51.3267 17.2999 51.4139 17.4344 51.3304C17.5695 51.2482 17.5073 51.3958 17.4132 51.4799C17.3304 51.5615 17.4027 51.6237 17.4861 51.5559C17.559 51.4886 17.5484 51.625 17.4755 51.7196C17.4132 51.8124 17.5172 51.9189 17.559 51.8136C17.6 51.709 17.6318 51.828 17.5901 51.9475C17.4967 52.1592 17.7458 52.1698 17.6941 51.9706C17.6629 51.8853 17.7563 51.9513 17.8497 52.0808C17.9432 52.2109 18.1611 52.0789 18.0266 51.9743C17.9021 51.8691 18.016 51.8535 18.2445 51.9743C18.4836 52.0932 18.4419 51.8884 18.2962 51.8585C18.1511 51.8317 18.0571 51.7072 18.3168 51.7321C18.5764 51.757 18.4313 51.6343 18.3274 51.615C18.2234 51.5957 18.1405 51.6667 18.2757 51.5577C18.4108 51.4494 18.1617 51.4936 18.0889 51.4724C18.0266 51.4332 17.9537 51.3441 17.9432 51.2607C17.9743 51.0932 17.9537 50.8977 18.0889 50.7912C18.4936 50.5845 18.9924 50.3229 19.0235 49.7824C18.899 49.4269 18.6493 49.156 18.4836 48.8596C18.4419 48.6728 18.4836 48.4872 18.6287 48.3633C18.7533 48.3079 18.6493 48.0999 18.7221 48.004C19.0129 47.5968 19.6462 47.4635 19.7919 46.9156C19.7502 46.9012 19.6674 46.9311 19.6362 46.8676C19.6257 46.8408 19.574 46.8085 19.6151 46.7767C19.9165 46.6596 19.47 46.6416 19.6045 46.4423C19.6562 46.5208 19.7496 46.4834 19.7913 46.5513C19.8642 46.6453 19.7707 46.7667 19.7496 46.8246C19.8536 46.8533 19.9576 46.8035 19.9987 46.6933C20.0609 46.5351 20.196 46.7717 20.1649 47.0332C20.1437 47.1802 20.2895 47.2394 20.31 47.1242C20.3617 46.9068 20.4763 47.065 20.4451 47.2499C20.414 47.4174 20.4968 47.5314 20.5385 47.3876C20.6008 47.2076 20.6737 47.3184 20.6425 47.5283C20.622 47.7151 20.7154 47.7749 20.7465 47.6385C20.7882 47.4959 20.9234 47.4442 20.8816 47.7456C20.8505 47.9305 20.9545 47.8845 20.975 47.8203C21.0267 47.6846 20.9956 47.6995 21.0479 47.7954C21.0479 47.7954 21.1625 47.9156 21.183 48.1385C21.2141 48.3608 21.3387 48.1883 21.3181 48.0943C21.2552 47.7637 21.401 47.9362 21.4838 48.0675C21.5672 48.2027 21.6812 48.1105 21.5977 47.9984C21.3904 47.6983 21.5772 47.8241 21.7123 47.9679C21.8474 48.1086 21.8786 47.9131 21.8057 47.8328C21.7229 47.7531 21.4944 47.5376 21.3904 47.4255ZM18.6592 49.331C18.6592 49.6037 18.4413 49.8217 18.1711 49.8217C17.8908 49.8217 17.6723 49.6031 17.6723 49.331C17.6723 49.0601 17.8908 48.8403 18.1711 48.8403C18.4413 48.8403 18.6592 49.0601 18.6592 49.331ZM18.701 47.6055C18.4307 47.6055 18.2128 47.3851 18.2128 47.1123C18.2128 46.8421 18.4313 46.6217 18.701 46.6217C18.9812 46.6217 19.1991 46.8421 19.1991 47.1123C19.1991 47.3851 18.9812 47.6055 18.701 47.6055Z" fill="white"/>
<path d="M17.8074 49.331C17.8074 49.5302 17.9631 49.6921 18.1711 49.6921C18.3685 49.6921 18.5241 49.5302 18.5241 49.331C18.5241 49.1317 18.3685 48.9717 18.1711 48.9717C17.9631 48.9717 17.8074 49.1311 17.8074 49.331ZM18.701 46.753C18.5036 46.753 18.3479 46.9155 18.3479 47.1123C18.3479 47.3116 18.5036 47.4735 18.701 47.4735C18.9083 47.4735 19.064 47.3116 19.064 47.1123C19.064 46.9155 18.9083 46.753 18.701 46.753ZM21.1724 50.3572C21.1208 50.3696 21.0996 50.3609 21.0579 50.3709C20.975 50.3995 20.9227 50.3802 20.9433 50.3553C21.0161 50.2557 20.9645 50.1579 20.7671 50.3515C20.5597 50.4319 20.3411 50.369 20.1649 50.2644C20.1027 50.1859 19.9881 50.0776 20.0198 49.9418C20.1444 49.4356 20.5491 48.745 20.0821 48.288C19.8119 47.9094 19.262 48.1099 18.8772 48.0208C18.7109 48.1665 18.9083 48.3926 18.7109 48.4853C18.6381 48.5613 18.607 48.6435 18.607 48.7431C18.5864 49.1417 19.0852 48.8073 19.3131 48.9399C19.4482 49.0146 19.531 49.1591 19.5727 49.2955C19.5933 49.5557 19.6138 49.8827 19.3654 50.0178C19.1786 50.1336 19.4899 50.194 19.4171 50.3522C19.168 50.61 19.2925 50.6062 19.3859 50.5782C19.4899 50.5134 19.5727 50.5303 19.5522 50.6174C19.531 50.7065 19.5727 50.808 19.6661 50.6423C19.7596 50.4786 19.7907 50.6118 19.8112 50.7631C19.8324 50.9138 19.9569 50.8055 19.9669 50.7575C19.998 50.6224 20.0809 50.6486 20.0709 50.8036C20.0504 50.9549 20.1438 50.9462 20.1643 50.8889C20.2054 50.6922 20.2266 50.7003 20.2783 50.8945C20.32 51.0546 20.4339 50.9923 20.4134 50.9001C20.3822 50.7326 20.4968 50.7451 20.5379 50.8945C20.5796 51.0421 20.7148 51.0602 20.673 50.879C20.6214 50.6978 20.7876 50.8541 20.8287 50.8914C21.1195 51.1424 21.2235 50.808 20.9427 50.7526C20.8287 50.7277 20.7453 50.5521 21.0049 50.6423C21.462 50.8005 21.2646 50.5832 21.0361 50.5215C20.9738 50.5041 21.0983 50.4643 21.254 50.5159C21.4421 50.5745 21.2347 50.3466 21.1724 50.3572ZM30.529 44.2822C30.3322 44.2822 30.1765 44.4447 30.1765 44.6433C30.1765 44.8407 30.3322 45.0026 30.529 45.0026C30.7264 45.0026 30.8926 44.8407 30.8926 44.6433C30.8926 44.4447 30.7264 44.2822 30.529 44.2822ZM31.1735 49.08C30.9761 49.08 30.8098 49.2419 30.8098 49.4406C30.8098 49.6379 30.9761 49.8017 31.1735 49.8017C31.3702 49.8017 31.5365 49.6379 31.5365 49.4406C31.5365 49.2419 31.3702 49.08 31.1735 49.08Z" fill="white"/>
<path d="M33.5715 48.1908C33.5827 48.1697 33.5715 48.1547 33.5509 48.1641C33.3846 48.2481 33.2501 48.0128 33.0521 48.0769C32.9376 48.1142 32.8653 48.2101 32.8136 48.3042C32.7408 48.4468 32.6785 48.4019 32.6785 48.2737C32.6991 48.0732 32.8965 47.9766 33.0422 47.8403C33.1978 47.7139 33.1978 47.4635 33.1773 47.3851C33.1561 47.2991 33.1144 47.3222 33.1144 47.3888C33.0104 47.7033 32.5228 47.6273 32.4288 47.958C32.4176 48.004 32.46 48.0893 32.3765 48.0931C32.2003 47.7033 32.7296 47.5096 32.6673 47.1111C32.6368 47.0295 32.5745 46.9336 32.4805 46.8975C32.4288 46.8801 32.2526 46.8819 32.3765 46.9548C32.4176 47.0027 32.4494 47.0849 32.4176 47.1703C32.2619 47.334 32.1268 47.5171 32.138 47.7431C32.138 47.7768 32.0963 47.7892 32.0751 47.7606C31.93 47.5775 31.7744 47.3745 31.6909 47.1453C31.5981 46.8496 31.628 45.918 32.252 46.0724C32.3348 46.1011 32.4176 46.1596 32.4905 46.2306C32.5316 46.2879 32.511 46.3551 32.4799 46.4106C32.4388 46.4672 32.4487 46.5227 32.5521 46.4728C32.6978 46.4 32.6978 46.2132 32.6667 46.0675C32.615 45.9629 32.5222 45.8751 32.4076 45.8153C32.3553 45.7885 32.3871 45.748 32.4282 45.753C32.7084 45.776 32.9787 46.0145 33.2695 45.8383C33.6225 45.55 33.2277 45.2636 33.1972 44.9653C33.1972 44.8675 33.1449 44.9441 33.1343 44.9809C33.0926 45.1303 33.2271 45.258 33.2589 45.3974C33.29 45.5712 33.1655 45.6496 33.1343 45.6727C33.0098 45.7792 32.927 45.7063 33.0926 45.6085C33.1767 45.5263 33.1555 45.3825 33.1449 45.276C33.1244 45.1976 33.0721 45.1727 33.0826 45.276C33.0509 45.5942 32.7601 45.6104 32.6984 45.5961C32.6779 45.5924 32.6461 45.5537 32.6984 45.5394C32.7607 45.5251 32.8336 45.4877 32.8747 45.4361C32.9158 45.3968 32.8952 45.3439 32.8336 45.39C32.7296 45.4305 32.5945 45.4024 32.4699 45.4448C32.3553 45.484 32.2414 45.5824 32.138 45.6191C32.1063 45.6303 32.0857 45.6054 32.1063 45.5886C32.1692 45.5394 32.2308 45.4927 32.2937 45.4417C32.4083 45.352 32.3971 45.1639 32.3871 45.1054C32.3553 45.0382 32.3242 45.073 32.3242 45.1228C32.2931 45.3364 32.0334 45.4859 31.8771 45.6366C31.3067 46.2381 31.1398 46.697 31.3895 47.2749C31.628 47.8017 32.0645 48.2126 32.4388 48.6772C32.6362 48.9455 33.0098 49.1641 32.9164 49.5576C32.8442 49.6747 32.7196 49.7494 32.5845 49.7463C31.6909 49.5539 31.6604 49.0147 31.3074 48.1504C31.1405 47.7319 30.9748 47.316 30.8708 46.8782C30.8708 46.8782 30.6946 45.9373 30.9026 45.6316C31.0994 45.3308 31.3074 45.3072 31.3074 45.3072C31.3584 45.3016 31.4935 45.3321 31.5253 45.2879C31.5664 45.2455 31.5876 45.1826 31.5876 45.1172C31.5776 45.0481 31.567 45.0108 31.681 44.9572C31.7333 44.9167 31.785 44.8682 31.7744 44.7885C31.8055 44.804 31.785 44.8401 31.785 44.8613C31.785 44.8613 31.9512 44.865 31.7432 44.5126C31.6604 44.3999 31.7333 44.4036 31.7638 44.4186C31.785 44.5232 31.8784 44.4416 31.8989 44.55C31.8989 44.6782 31.9618 44.6359 31.9307 44.5232C31.9201 44.4111 31.8989 44.2959 31.8061 44.2249C31.775 44.1944 31.7955 44.1732 31.8478 44.2056C31.9101 44.271 32.0035 44.3277 32.0035 44.408C31.9923 44.4703 32.0347 44.4211 32.0552 44.3812C32.1274 44.2212 31.9618 44.1004 31.8578 43.997C31.8167 43.9578 31.8373 43.9329 31.869 43.9422C31.9207 44.0132 32.0135 44.0649 32.0764 44.129C32.0969 44.1521 32.1598 44.1645 32.1393 44.106C32.087 43.7946 32.0975 43.9335 31.8902 43.7716C31.8379 43.7411 31.879 43.6738 31.9107 43.6757C31.973 43.738 32.077 43.7666 32.1393 43.8252C32.191 43.9173 32.2015 43.8108 32.191 43.7791C32.1393 43.662 31.9724 43.6433 31.8995 43.5387C31.8995 43.5387 31.879 43.474 31.9207 43.4565C31.9929 43.4721 32.087 43.4391 32.1598 43.4908C32.1704 43.5032 32.191 43.5387 32.2009 43.4908C32.1804 43.3469 32.0558 43.3289 31.9724 43.3339C31.9518 43.3339 31.9313 43.3376 31.9207 43.3021C31.8995 43.2591 31.8578 43.2143 31.9313 43.1832C32.0353 43.1315 32.1281 43.2006 32.2015 43.2741C32.2327 43.3133 32.2327 43.2759 32.2327 43.2579C32.2221 43.2243 32.2121 43.1937 32.1916 43.1657C32.1499 43.0611 32.067 43.063 32.0253 43.0592C31.9842 43.0536 31.9525 43.0499 31.9107 43.0362C31.9107 43.0325 31.8696 43.0094 31.9213 42.977C32.0048 42.8955 32.1399 42.9845 32.2433 42.9827C32.275 42.969 32.275 42.9403 32.275 42.9117C32.2956 42.8332 32.2545 42.8905 32.2545 42.8905C32.2545 42.8905 32.2227 42.9366 32.1399 42.8656C32.0564 42.7678 31.9213 42.8232 31.8491 42.8332C31.8173 42.8531 31.7968 42.8015 31.8379 42.7728C31.8902 42.7336 31.9419 42.6838 31.9936 42.6626C32.1081 42.6589 32.0141 42.609 31.9624 42.5947C31.7862 42.5399 31.4437 42.6022 31.3808 42.8264C31.3597 42.7404 31.3597 42.4652 31.3597 42.3544C31.3497 42.2441 31.3186 42.2622 31.2874 42.3531C31.2669 42.4596 31.2669 42.5748 31.2463 42.6838C31.2357 42.7174 31.2152 42.728 31.2046 42.6906C31.1946 42.6016 31.2463 42.2996 30.9138 42.2622C30.9138 42.2622 30.8621 42.3444 30.9661 42.3811C31.1324 42.4403 31.0072 42.8401 31.0489 42.7616C31.0489 42.7747 31.0284 42.7996 30.9973 42.7778C30.9045 42.7012 30.8204 42.6744 30.7376 42.6476L30.7482 42.7846C30.468 42.8899 30.1361 42.8064 29.8241 42.8027C29.6167 42.7884 29.5962 42.8737 29.6578 42.9092C29.7201 42.9858 29.6473 43.1333 29.7512 43.2031C29.8135 43.2423 29.9069 43.1888 29.9692 43.2118C30.0315 43.2317 29.9804 43.2635 29.9381 43.2598C29.7718 43.2461 29.6373 43.3189 29.491 43.3326C29.377 43.3469 29.3558 43.2616 29.3558 43.2616L29.3459 43.1993C29.3459 43.1993 29.3253 43.1302 29.3048 43.19C29.2936 43.2081 29.2836 43.2224 29.2836 43.2398C29.2525 43.3432 29.2942 43.4715 29.5433 43.4086C29.6784 43.3749 29.8135 43.3164 29.9275 43.3681C29.948 43.3756 29.9586 43.4142 29.9275 43.4235C29.6884 43.4889 29.7923 43.5281 29.7923 43.5281C29.7923 43.5281 29.8957 43.4802 29.8857 43.5549C29.958 43.7237 29.6983 43.7542 29.7095 43.9036C29.7095 43.936 29.74 43.9478 29.74 43.9478C29.74 43.9478 29.8546 43.9678 29.7818 43.9161C29.7606 43.8986 29.7712 43.8432 29.8334 43.8183C29.9374 43.7685 29.9792 43.6745 30.0097 43.5549C30.062 43.5175 30.1348 43.5144 30.1971 43.5144C30.2799 43.5182 30.2699 43.4783 30.2699 43.4609C30.2587 43.3824 30.2382 43.3183 30.2587 43.251C30.2699 43.2348 30.2905 43.205 30.3005 43.251C30.3416 43.5213 30.4356 43.8202 30.7158 43.9073C30.996 43.9553 31.1517 43.776 31.2663 43.5941C31.2768 43.5499 31.308 43.5692 31.2974 43.619C31.2868 43.7205 31.2146 43.8202 31.1417 43.8862C31.0066 44.0088 30.7986 44.0288 30.6224 43.9721C30.5707 43.9341 30.519 43.9734 30.4873 43.9858C30.1865 44.1172 29.8534 44.2187 29.5837 44.4111C29.1273 44.8507 28.5451 45.3844 28.7325 46.1665C28.3483 46.4442 27.8813 46.6702 27.4554 46.9741C27.3302 47.0899 27.3719 47.2107 27.4348 47.3315C27.57 47.5165 27.5382 48.0682 27.7667 48.3278C27.8078 48.3546 27.8601 48.3459 27.9019 48.3334C27.943 48.3197 27.933 48.321 27.9535 48.2855C27.9747 48.2625 27.9847 48.2375 27.9535 48.2282C27.829 48.2145 27.8184 48.0893 27.829 47.9829C27.8608 47.9156 27.8496 47.8907 27.8085 47.8546C27.6939 47.679 27.715 47.4473 27.6634 47.2518C27.7468 47.2001 27.8402 47.1005 27.8296 46.9828C28.1105 46.8658 28.4013 46.8047 28.6921 46.73C28.7649 46.7144 28.8371 46.7288 28.8371 46.8197C29.0134 47.3496 29.4399 47.7425 29.9069 47.9972C30.1037 48.179 30.3945 48.3583 30.4368 48.6591C30.3328 48.7818 30.4474 48.8795 30.5091 48.9742C30.5203 49.0333 30.5819 49.0881 30.6131 48.9742C30.6442 48.9138 30.6548 48.8353 30.6853 48.7643C30.6965 48.7301 30.7581 48.6753 30.7693 48.7755C30.8416 49.1323 30.4985 49.4207 30.3428 49.7071C30.1354 50.5558 31.039 50.7694 31.3709 51.3529C31.4437 51.5789 31.402 51.8404 31.3086 52.0503C31.2357 52.1586 31.3086 52.1779 31.3186 52.191C31.3709 52.2315 31.412 52.2726 31.5676 52.2763C31.5994 52.2956 31.5994 52.2495 31.5994 52.2035C31.6199 51.9245 31.6922 51.6667 31.7962 51.4382C31.8273 51.3815 31.9107 51.2607 31.7856 51.2395C31.6405 51.1685 31.5365 50.9873 31.4736 50.8535C31.2245 50.4481 31.567 50.115 31.7021 49.7631C31.7133 49.7345 31.775 49.6959 31.8373 49.7501C32.0041 49.8665 32.1804 49.9624 32.2943 50.1436C32.3566 50.2289 32.3665 50.3591 32.346 50.4674C32.3149 50.5191 32.3149 50.5838 32.4089 50.5016C32.4606 50.45 32.4811 50.3827 32.4811 50.3043C32.4811 50.2868 32.4917 50.2277 32.4606 50.1336C32.45 50.0944 32.4811 50.0695 32.5328 50.1019C32.6885 50.1498 32.9799 50.1156 33.1044 49.991C33.4363 49.7276 33.1978 49.321 33.1356 48.9773C33.125 48.9468 33.125 48.8795 33.1561 48.8347C33.2807 48.7033 33.3952 48.7706 33.4052 48.8042C33.4363 48.8702 33.4681 48.8652 33.4774 48.8366C33.498 48.6554 33.3423 48.5327 33.2184 48.5713C33.1349 48.6342 33.0727 48.7102 33.0515 48.8117C33.0515 48.8721 33.0104 48.8596 32.9998 48.8061C32.9892 48.7724 32.9892 48.7313 32.9793 48.7014C32.9699 48.3204 33.4158 48.3739 33.5715 48.1908ZM30.6224 43.0673C30.5396 43.0891 30.5495 42.9964 30.5078 42.9553C30.5707 42.8949 30.6429 42.8737 30.7264 42.8824C30.6847 42.9434 30.5707 42.9733 30.6224 43.0673ZM30.9337 43.1358L30.7893 43.134L30.8926 43.0113C30.9132 43.0499 30.9655 43.0823 30.9337 43.1358ZM30.0931 47.5681C29.8229 47.5681 29.6049 47.3477 29.6049 47.0775C29.6049 46.8066 29.8235 46.5862 30.0931 46.5862C30.3627 46.5862 30.5813 46.8066 30.5813 47.0775C30.5813 47.3471 30.3627 47.5681 30.0931 47.5681ZM30.529 45.1347C30.2587 45.1347 30.0414 44.9142 30.0414 44.6434C30.0414 44.3713 30.2594 44.1508 30.529 44.1508C30.7986 44.1508 31.0278 44.3713 31.0278 44.6434C31.0271 44.9142 30.7986 45.1347 30.529 45.1347ZM31.1735 49.9325C30.9032 49.9325 30.6847 49.7121 30.6847 49.4412C30.6847 49.171 30.9038 48.9505 31.1735 48.9505C31.4431 48.9505 31.661 49.171 31.661 49.4412C31.661 49.7115 31.4431 49.9325 31.1735 49.9325Z" fill="white"/>
<path d="M30.0931 46.7163C29.8957 46.7163 29.7301 46.8782 29.7301 47.0775C29.7301 47.2742 29.8957 47.4367 30.0931 47.4367C30.2905 47.4367 30.4568 47.2742 30.4568 47.0775C30.4561 46.8776 30.2905 46.7163 30.0931 46.7163ZM22.9689 38.9781C23 38.9551 23.1246 38.8754 23.218 38.866C23.0312 38.706 22.8755 38.6705 22.8755 38.6705C22.2316 38.3579 22.2528 38.2508 22.2422 38.201C22.2111 37.9806 22.1799 38.0304 22.1694 38.1686C22.1694 38.2583 22.1694 38.683 22.6993 39.0404C22.7404 39.074 22.7927 39.117 22.8344 39.1649C22.8543 39.1182 22.9378 39.0068 22.9689 38.9781Z" fill="white"/>
<path d="M23.685 39.6095C23.685 39.6095 23.7062 39.6151 23.7267 39.6232C23.5816 39.2695 23.4048 39.0416 23.2597 38.9015V38.9102L23.2286 38.9084C23.1663 38.9084 23.0517 38.9775 23 39.0155C22.9689 39.0404 22.8855 39.1487 22.8755 39.1774L22.8861 39.1848L22.8655 39.2004C23.0212 39.3872 23.1146 39.6344 23.1669 39.7963C23.2074 39.7372 23.3948 39.5136 23.685 39.6095ZM23.0206 39.2951C23.0206 39.1743 23.114 39.0759 23.2391 39.0759C23.3643 39.0759 23.4571 39.1736 23.4571 39.2951C23.4571 39.4165 23.3637 39.5143 23.2391 39.5143C23.1246 39.5136 23.0206 39.4159 23.0206 39.2951ZM27.2891 38.1176C27.2785 37.9799 27.248 37.9289 27.2163 38.1531C27.2063 38.1991 27.2275 38.3081 26.583 38.6207C26.583 38.6207 26.3962 38.6742 26.1882 38.881C26.2816 38.8916 26.3856 38.9532 26.4273 38.9819C26.4479 38.9962 26.5624 39.0977 26.583 39.1687C26.6347 39.0995 26.6976 39.0373 26.7592 38.9912C27.2891 38.6331 27.2891 38.2066 27.2891 38.1176Z" fill="white"/>
<path d="M25.7517 39.6382C26.0425 39.5329 26.2299 39.7503 26.271 39.8088C26.3127 39.6662 26.4061 39.4171 26.5512 39.216L26.5307 39.2091L26.5413 39.1898C26.5518 39.1649 26.4584 39.0541 26.4061 39.0192C26.365 38.9924 26.2611 38.9283 26.1676 38.9252H26.1465V38.9233C25.9908 39.0777 25.8351 39.3094 25.7106 39.645L25.7212 39.6506C25.7212 39.6469 25.7417 39.6431 25.7517 39.6382ZM26.1571 39.1276C26.2816 39.1276 26.3756 39.2272 26.3756 39.348C26.3756 39.4688 26.2822 39.5672 26.1571 39.5672C26.0431 39.5672 25.9391 39.4694 25.9391 39.348C25.9391 39.2266 26.0325 39.1276 26.1571 39.1276Z" fill="white"/>
<path d="M26.3128 39.9526C26.2611 40.0205 26.1882 40.0884 26.2399 39.9227C26.2399 39.9227 26.2505 39.8997 26.2604 39.8655L26.2499 39.8461C26.2393 39.8349 26.0631 39.5734 25.7723 39.6824C25.7206 39.6979 25.6994 39.7017 25.6888 39.6911C25.616 39.8978 25.5537 40.145 25.5126 40.4383C25.398 41.2385 24.8999 40.9184 24.8376 40.6924C24.8376 40.6924 24.8164 40.5965 24.8164 40.5822H24.6402C24.6402 40.5822 24.6508 40.6015 24.619 40.7192C24.619 40.7266 24.619 40.7353 24.6084 40.7422C24.5356 40.9433 24.058 41.2335 23.944 40.4844C23.9029 40.1643 23.8301 39.8997 23.7466 39.6824V39.6899L23.7261 39.6755C23.7101 39.6657 23.6927 39.6586 23.6744 39.6544V39.6525C23.3737 39.5547 23.2074 39.8231 23.1968 39.8337L23.1868 39.8536C23.2074 39.9209 23.218 39.9676 23.218 39.9707C23.2802 40.1345 23.1974 40.0684 23.1451 40.0006C23.0934 39.9333 22.7921 39.7409 22.9166 39.9564C23.0411 40.1737 23.3319 41.2833 23.3737 41.4707C23.3737 41.4707 24.464 41.358 24.7342 41.358C25.3986 41.3543 26.0842 41.4726 26.0842 41.4707C26.1359 41.2821 26.4167 40.1257 26.5413 39.9084C26.6658 39.6911 26.3651 39.8854 26.3128 39.9526Z" fill="white"/>
<path d="M24.8164 40.5822C24.7753 40.4078 24.8482 40.2484 24.9005 40.1737C24.9522 40.1064 25.1495 40.1064 25.2012 40.1631C25.2429 40.2023 25.2635 40.2235 25.284 40.2621C25.2946 40.305 25.3052 40.3082 25.3258 40.2621C25.3364 40.2216 25.3774 40.079 25.3364 39.9987C25.2953 39.919 25.2535 39.8798 25.1807 39.8536C25.1184 39.825 25.0561 39.8231 25.0038 39.8443C24.9515 39.8654 24.9104 39.9047 24.8893 39.9096C24.8793 39.9159 24.8693 39.919 24.8793 39.8941C24.8793 39.871 24.9104 39.7359 24.8793 39.6419C24.8687 39.6008 24.8482 39.5366 24.8064 39.4887C24.7653 39.4426 24.7753 39.4464 24.7548 39.4233C24.7442 39.4121 24.7342 39.4053 24.7236 39.404C24.713 39.4053 24.7031 39.4127 24.6925 39.4233C24.6713 39.4445 24.6819 39.4426 24.6408 39.4887C24.5991 39.5366 24.5785 39.6008 24.568 39.6419C24.5368 39.7359 24.568 39.871 24.568 39.8941C24.5785 39.919 24.568 39.9152 24.5574 39.9096C24.5362 39.904 24.4951 39.8654 24.4428 39.8443C24.3905 39.8231 24.3282 39.825 24.256 39.8536C24.1937 39.8798 24.152 39.919 24.1109 39.9987C24.0692 40.079 24.1109 40.221 24.1215 40.2621C24.142 40.3082 24.1526 40.305 24.1632 40.2621C24.1838 40.2229 24.2043 40.2017 24.246 40.1631C24.2977 40.1058 24.4951 40.1058 24.5468 40.1737C24.5985 40.2484 24.6819 40.4078 24.6402 40.5822H24.8164Z" fill="white"/>
</svg>
