<svg width="20" height="17" viewBox="0 0 20 17" fill="none" xmlns="http://www.w3.org/2000/svg">
<path fill-rule="evenodd" clip-rule="evenodd" d="M9.99938 5.6413C8.66938 5.6413 7.58838 6.7233 7.58838 8.0533C7.58838 9.3823 8.66938 10.4633 9.99938 10.4633C11.3294 10.4633 12.4114 9.3823 12.4114 8.0533C12.4114 6.7233 11.3294 5.6413 9.99938 5.6413M9.99938 11.9633C7.84238 11.9633 6.08838 10.2093 6.08838 8.0533C6.08838 5.8963 7.84238 4.1413 9.99938 4.1413C12.1564 4.1413 13.9114 5.8963 13.9114 8.0533C13.9114 10.2093 12.1564 11.9633 9.99938 11.9633" fill="#A7A7AF"/>
<mask id="mask0_1_567" style="mask-type:alpha" maskUnits="userSpaceOnUse" x="0" y="0" width="20" height="17">
<path fill-rule="evenodd" clip-rule="evenodd" d="M0 0.000183105H19.9998V16.1052H0V0.000183105Z" fill="white"/>
</mask>
<g mask="url(#mask0_1_567)">
<path fill-rule="evenodd" clip-rule="evenodd" d="M1.56975 8.05251C3.42975 12.1615 6.56275 14.6045 9.99975 14.6055C13.4368 14.6045 16.5698 12.1615 18.4298 8.05251C16.5698 3.94451 13.4368 1.50151 9.99975 1.50051C6.56375 1.50151 3.42975 3.94451 1.56975 8.05251V8.05251ZM10.0017 16.1055H9.99775H9.99675C5.86075 16.1025 2.14675 13.2035 0.06075 8.34851C-0.02025 8.15951 -0.02025 7.94551 0.06075 7.75651C2.14675 2.90251 5.86175 0.00350586 9.99675 0.000505859C9.99875 -0.000494141 9.99875 -0.000494141 9.99975 0.000505859C10.0018 -0.000494141 10.0018 -0.000494141 10.0028 0.000505859C14.1388 0.00350586 17.8527 2.90251 19.9387 7.75651C20.0207 7.94551 20.0207 8.15951 19.9387 8.34851C17.8537 13.2035 14.1388 16.1025 10.0028 16.1055H10.0017Z" fill="#A7A7AF"/>
</g>
</svg>
