<svg width="28" height="28" viewBox="0 0 28 28" fill="none" xmlns="http://www.w3.org/2000/svg">
<g clip-path="url(#clip0_1_554)">
<path d="M27.722 14.3195C27.7231 13.3654 27.6425 12.413 27.4808 11.4727H14.2773V16.8649H21.8397C21.685 17.7261 21.3574 18.5471 20.8768 19.2783C20.3963 20.0095 19.7726 20.6359 19.0434 21.1196V24.6198H23.5567C26.1994 22.1832 27.722 18.58 27.722 14.3195Z" fill="#137AF4"/>
<path d="M14.2788 28C18.0571 28 21.2384 26.7594 23.5582 24.6204L19.0449 21.1202C17.7887 21.9719 16.1709 22.458 14.2788 22.458C10.627 22.458 7.52735 19.9962 6.41895 16.6788H1.76953V20.286C2.93484 22.6048 4.7217 24.5541 6.93064 25.9163C9.13958 27.2785 11.6837 27.9999 14.2788 28Z" fill="#34A853"/>
<path d="M6.41857 16.6821C5.8326 14.9438 5.8326 13.0613 6.41857 11.323V7.71582H1.76915C0.788858 9.6665 0.27832 11.8194 0.27832 14.0026C0.27832 16.1857 0.788858 18.3386 1.76915 20.2893L6.41857 16.6821Z" fill="#FBBC04"/>
<path d="M14.2788 5.54289C16.2755 5.51027 18.2048 6.26466 19.6497 7.643L23.6457 3.64695C21.1118 1.26697 17.7549 -0.0396818 14.2788 0.000918581C11.6837 0.00103686 9.13958 0.722453 6.93064 2.08463C4.7217 3.4468 2.93484 5.39612 1.76953 7.71495L6.41895 11.3221C7.52735 8.00469 10.627 5.54289 14.2788 5.54289Z" fill="#EA4335"/>
</g>
<defs>
<clipPath id="clip0_1_554">
<rect width="28" height="28" fill="white"/>
</clipPath>
</defs>
</svg>
